<svg width="24" height="24" viewBox="0 0 24 24" fill="none" xmlns="http://www.w3.org/2000/svg">
<path d="M11.9998 17.4671C10.921 17.4671 9.86646 17.1472 8.96949 16.5478C8.07253 15.9485 7.37343 15.0967 6.9606 14.1C6.54777 13.1033 6.43976 12.0067 6.65022 10.9486C6.86067 9.89057 7.38015 8.9187 8.14296 8.1559C8.90576 7.39309 9.87764 6.87361 10.9357 6.66316C11.9937 6.4527 13.0904 6.56071 14.0871 6.97354C15.0837 7.38637 15.9356 8.08547 16.5349 8.98243C17.1342 9.87939 17.4541 10.9339 17.4541 12.0127C17.4525 13.4588 16.8774 14.8452 15.8548 15.8678C14.8323 16.8903 13.4459 17.4655 11.9998 17.4671ZM11.9998 7.64922C11.1368 7.64922 10.2931 7.90514 9.57555 8.3846C8.85798 8.86407 8.2987 9.54555 7.96843 10.3429C7.63817 11.1402 7.55176 12.0175 7.72013 12.864C7.88849 13.7104 8.30407 14.4879 8.91432 15.0982C9.52456 15.7084 10.3021 16.124 11.1485 16.2923C11.9949 16.4607 12.8723 16.3743 13.6696 16.044C14.4669 15.7138 15.1484 15.1545 15.6279 14.4369C16.1073 13.7194 16.3633 12.8757 16.3633 12.0127C16.362 10.8558 15.9018 9.74672 15.0838 8.92869C14.2658 8.11066 13.1566 7.65052 11.9998 7.64922Z" fill="#D3708E"/>
<path d="M12.0001 14.1943C11.5686 14.1943 11.1468 14.0663 10.788 13.8266C10.4292 13.5869 10.1496 13.2461 9.98443 12.8475C9.8193 12.4488 9.7761 12.0101 9.86028 11.5869C9.94446 11.1637 10.1523 10.7749 10.4574 10.4698C10.7625 10.1647 11.1512 9.95692 11.5745 9.87273C11.9977 9.78855 12.4363 9.83176 12.835 9.99689C13.2337 10.162 13.5744 10.4417 13.8141 10.8004C14.0539 11.1592 14.1818 11.581 14.1818 12.0125C14.1818 12.5912 13.952 13.1461 13.5428 13.5553C13.1337 13.9644 12.5787 14.1943 12.0001 14.1943ZM12.0001 10.9217C11.7843 10.9217 11.5734 10.9857 11.394 11.1055C11.2146 11.2254 11.0748 11.3958 10.9923 11.5951C10.9097 11.7944 10.8881 12.0138 10.9302 12.2254C10.9723 12.437 11.0762 12.6313 11.2287 12.7839C11.3813 12.9365 11.5757 13.0404 11.7873 13.0824C11.9989 13.1245 12.2182 13.1029 12.4175 13.0204C12.6169 12.9378 12.7872 12.798 12.9071 12.6186C13.027 12.4392 13.091 12.2283 13.091 12.0125C13.091 11.7232 12.976 11.4458 12.7715 11.2412C12.5669 11.0366 12.2894 10.9217 12.0001 10.9217Z" fill="#D3708E"/>
<path d="M12 4.92188C5.79022 4.92188 0.35442 11.3891 0.125883 11.664C0.0445325 11.7619 0 11.8852 0 12.0125C0 12.1398 0.0445325 12.2631 0.125883 12.3611C0.35442 12.636 5.79022 19.1032 12 19.1032C18.2098 19.1032 23.6456 12.636 23.8741 12.3611C23.9555 12.2631 24 12.1398 24 12.0125C24 11.8852 23.9555 11.7619 23.8741 11.664C23.6456 11.3891 18.2098 4.92188 12 4.92188ZM12 18.0123C7.09109 18.0123 2.48434 13.3412 1.27293 12.0125C2.48271 10.6828 7.084 6.01274 12 6.01274C16.916 6.01274 21.5157 10.6838 22.7271 12.0125C21.5173 13.3423 16.916 18.0123 12 18.0123Z" fill="#D3708E"/>
<path d="M12 18.5577C18.0249 18.5577 23.4542 12.0125 23.4542 12.0125C23.4542 12.0125 18.0249 5.46729 12 5.46729C5.97516 5.46729 0.545898 12.0125 0.545898 12.0125C0.545898 12.0125 5.97516 18.5577 12 18.5577ZM12 7.10359C12.9709 7.10359 13.92 7.39149 14.7273 7.93089C15.5345 8.47029 16.1637 9.23696 16.5353 10.1339C16.9068 11.0309 17.004 12.0179 16.8146 12.9702C16.6252 13.9224 16.1577 14.7971 15.4712 15.4836C14.7846 16.1702 13.9099 16.6377 12.9577 16.8271C12.0055 17.0165 11.0185 16.9193 10.1215 16.5477C9.22448 16.1762 8.45782 15.547 7.91842 14.7398C7.37902 13.9325 7.09112 12.9834 7.09112 12.0125C7.09112 10.7106 7.6083 9.46198 8.5289 8.54138C9.4495 7.62078 10.6981 7.10359 12 7.10359Z" fill="#D3708E"/>
<path d="M12.0001 13.6488C12.9038 13.6488 13.6364 12.9162 13.6364 12.0125C13.6364 11.1088 12.9038 10.3762 12.0001 10.3762C11.0964 10.3762 10.3638 11.1088 10.3638 12.0125C10.3638 12.9162 11.0964 13.6488 12.0001 13.6488Z" fill="#D3708E"/>
</svg>
