<svg width="103" height="120" viewBox="0 0 103 120" fill="none" xmlns="http://www.w3.org/2000/svg">
<g filter="url(#filter0_d)">
<path d="M25 87V17H64.5858L78 30.4142V87H25Z" stroke="#F78FCD" stroke-width="2"/>
<mask id="path-2-inside-1" fill="white">
<path d="M64.5 30V18.4142C64.5 17.5233 65.5771 17.0771 66.2071 17.7071L77.7929 29.2929C78.4229 29.9229 77.9767 31 77.0858 31H65.5C64.9477 31 64.5 30.5523 64.5 30Z"/>
</mask>
<path d="M62.5 18.4142V30H66.5V18.4142H62.5ZM65.5 33H77.0858V29H65.5V33ZM79.2071 27.8787L67.6213 16.2929L64.7929 19.1213L76.3787 30.7071L79.2071 27.8787ZM77.0858 33C79.7585 33 81.097 29.7686 79.2071 27.8787L76.3787 30.7071C75.7487 30.0771 76.1949 29 77.0858 29V33ZM62.5 30C62.5 31.6569 63.8431 33 65.5 33V29C66.0523 29 66.5 29.4477 66.5 30H62.5ZM66.5 18.4142C66.5 19.3051 65.4229 19.7513 64.7929 19.1213L67.6213 16.2929C65.7314 14.403 62.5 15.7415 62.5 18.4142H66.5Z" fill="#F78FCD" mask="url(#path-2-inside-1)"/>
</g>
<path opacity="0.5" d="M59.14 64.16C59.204 64.416 59.236 64.736 59.236 65.12C59.236 65.488 59.204 65.808 59.14 66.08H58.18C58.244 66.336 58.276 66.656 58.276 67.04C58.276 67.408 58.244 67.728 58.18 68H53.38C53.316 67.728 53.284 67.408 53.284 67.04C53.284 66.656 53.316 66.336 53.38 66.08H52.42C52.356 65.808 52.324 65.488 52.324 65.12C52.324 64.736 52.356 64.416 52.42 64.16H51.46C51.396 63.888 51.364 63.568 51.364 63.2C51.364 62.816 51.396 62.496 51.46 62.24C51.396 61.968 51.364 61.648 51.364 61.28C51.364 60.896 51.396 60.576 51.46 60.32C51.396 60.048 51.364 59.728 51.364 59.36C51.364 58.976 51.396 58.656 51.46 58.4H52.42C52.356 58.128 52.324 57.808 52.324 57.44C52.324 57.056 52.356 56.736 52.42 56.48H53.38C53.316 56.208 53.284 55.888 53.284 55.52C53.284 55.136 53.316 54.816 53.38 54.56H58.18C58.244 54.816 58.276 55.136 58.276 55.52C58.276 55.888 58.244 56.208 58.18 56.48H59.14C59.204 56.736 59.236 57.056 59.236 57.44C59.236 57.808 59.204 58.128 59.14 58.4H57.22C57.156 58.128 57.124 57.808 57.124 57.44C57.124 57.056 57.156 56.736 57.22 56.48H54.34C54.404 56.736 54.436 57.056 54.436 57.44C54.436 57.808 54.404 58.128 54.34 58.4H53.38C53.444 58.656 53.476 58.976 53.476 59.36C53.476 59.728 53.444 60.048 53.38 60.32C53.444 60.576 53.476 60.896 53.476 61.28C53.476 61.648 53.444 61.968 53.38 62.24C53.444 62.496 53.476 62.816 53.476 63.2C53.476 63.568 53.444 63.888 53.38 64.16H54.34C54.404 64.416 54.436 64.736 54.436 65.12C54.436 65.488 54.404 65.808 54.34 66.08H57.22C57.156 65.808 57.124 65.488 57.124 65.12C57.124 64.736 57.156 64.416 57.22 64.16H59.14ZM68.8454 55.52C68.8454 55.888 68.8134 56.208 68.7494 56.48H65.8694C65.9334 56.736 65.9654 57.056 65.9654 57.44C65.9654 57.808 65.9334 58.128 65.8694 58.4C65.9334 58.656 65.9654 58.976 65.9654 59.36C65.9654 59.728 65.9334 60.048 65.8694 60.32C65.9334 60.576 65.9654 60.896 65.9654 61.28C65.9654 61.648 65.9334 61.968 65.8694 62.24C65.9334 62.496 65.9654 62.816 65.9654 63.2C65.9654 63.568 65.9334 63.888 65.8694 64.16C65.9334 64.416 65.9654 64.736 65.9654 65.12C65.9654 65.488 65.9334 65.808 65.8694 66.08C65.9334 66.336 65.9654 66.656 65.9654 67.04C65.9654 67.408 65.9334 67.728 65.8694 68H63.9494C63.8854 67.728 63.8534 67.408 63.8534 67.04C63.8534 66.656 63.8854 66.336 63.9494 66.08C63.8854 65.808 63.8534 65.488 63.8534 65.12C63.8534 64.736 63.8854 64.416 63.9494 64.16C63.8854 63.888 63.8534 63.568 63.8534 63.2C63.8534 62.816 63.8854 62.496 63.9494 62.24C63.8854 61.968 63.8534 61.648 63.8534 61.28C63.8534 60.896 63.8854 60.576 63.9494 60.32C63.8854 60.048 63.8534 59.728 63.8534 59.36C63.8534 58.976 63.8854 58.656 63.9494 58.4C63.8854 58.128 63.8534 57.808 63.8534 57.44C63.8534 57.056 63.8854 56.736 63.9494 56.48H61.0694C61.0054 56.208 60.9734 55.888 60.9734 55.52C60.9734 55.136 61.0054 54.816 61.0694 54.56H68.7494C68.8134 54.816 68.8454 55.136 68.8454 55.52Z" fill="#FFBED2"/>
<path opacity="0.5" d="M47.972 45.88C47.972 46.616 47.908 47.256 47.78 47.8C47.908 48.312 47.972 48.952 47.972 49.72C47.972 50.456 47.908 51.096 47.78 51.64H45.86C45.988 52.152 46.052 52.792 46.052 53.56C46.052 54.296 45.988 54.936 45.86 55.48H36.26C36.388 55.992 36.452 56.632 36.452 57.4C36.452 58.136 36.388 58.776 36.26 59.32C36.388 59.832 36.452 60.472 36.452 61.24C36.452 61.976 36.388 62.616 36.26 63.16C36.388 63.672 36.452 64.312 36.452 65.08C36.452 65.816 36.388 66.456 36.26 67H32.42C32.292 66.456 32.228 65.816 32.228 65.08C32.228 64.312 32.292 63.672 32.42 63.16C32.292 62.616 32.228 61.976 32.228 61.24C32.228 60.472 32.292 59.832 32.42 59.32C32.292 58.776 32.228 58.136 32.228 57.4C32.228 56.632 32.292 55.992 32.42 55.48C32.292 54.936 32.228 54.296 32.228 53.56C32.228 52.792 32.292 52.152 32.42 51.64C32.292 51.096 32.228 50.456 32.228 49.72C32.228 48.952 32.292 48.312 32.42 47.8C32.292 47.256 32.228 46.616 32.228 45.88C32.228 45.112 32.292 44.472 32.42 43.96C32.292 43.416 32.228 42.776 32.228 42.04C32.228 41.272 32.292 40.632 32.42 40.12H45.86C45.988 40.632 46.052 41.272 46.052 42.04C46.052 42.776 45.988 43.416 45.86 43.96H47.78C47.908 44.472 47.972 45.112 47.972 45.88ZM43.94 51.64C43.812 51.096 43.748 50.456 43.748 49.72C43.748 48.952 43.812 48.312 43.94 47.8C43.812 47.256 43.748 46.616 43.748 45.88C43.748 45.112 43.812 44.472 43.94 43.96H36.26C36.388 44.472 36.452 45.112 36.452 45.88C36.452 46.616 36.388 47.256 36.26 47.8C36.388 48.312 36.452 48.952 36.452 49.72C36.452 50.456 36.388 51.096 36.26 51.64H43.94Z" fill="#FFBED2"/>
<path opacity="0.5" d="M60.14 50.08C60.204 50.336 60.236 50.656 60.236 51.04C60.236 51.408 60.204 51.728 60.14 52H58.22C58.156 51.728 58.124 51.408 58.124 51.04C58.124 50.656 58.156 50.336 58.22 50.08H57.5C57.436 49.808 57.404 49.488 57.404 49.12C57.404 48.736 57.436 48.416 57.5 48.16H56.78C56.716 47.888 56.684 47.568 56.684 47.2C56.684 46.816 56.716 46.496 56.78 46.24H54.38C54.444 46.496 54.476 46.816 54.476 47.2C54.476 47.568 54.444 47.888 54.38 48.16C54.444 48.416 54.476 48.736 54.476 49.12C54.476 49.488 54.444 49.808 54.38 50.08C54.444 50.336 54.476 50.656 54.476 51.04C54.476 51.408 54.444 51.728 54.38 52H52.46C52.396 51.728 52.364 51.408 52.364 51.04C52.364 50.656 52.396 50.336 52.46 50.08C52.396 49.808 52.364 49.488 52.364 49.12C52.364 48.736 52.396 48.416 52.46 48.16C52.396 47.888 52.364 47.568 52.364 47.2C52.364 46.816 52.396 46.496 52.46 46.24C52.396 45.968 52.364 45.648 52.364 45.28C52.364 44.896 52.396 44.576 52.46 44.32C52.396 44.048 52.364 43.728 52.364 43.36C52.364 42.976 52.396 42.656 52.46 42.4C52.396 42.128 52.364 41.808 52.364 41.44C52.364 41.056 52.396 40.736 52.46 40.48C52.396 40.208 52.364 39.888 52.364 39.52C52.364 39.136 52.396 38.816 52.46 38.56H59.18C59.244 38.816 59.276 39.136 59.276 39.52C59.276 39.888 59.244 40.208 59.18 40.48H60.14C60.204 40.736 60.236 41.056 60.236 41.44C60.236 41.808 60.204 42.128 60.14 42.4H59.66C59.724 42.656 59.756 42.976 59.756 43.36C59.756 43.728 59.724 44.048 59.66 44.32H58.22C58.284 44.576 58.316 44.896 58.316 45.28C58.316 45.648 58.284 45.968 58.22 46.24H58.7C58.764 46.496 58.796 46.816 58.796 47.2C58.796 47.568 58.764 47.888 58.7 48.16H59.42C59.484 48.416 59.516 48.736 59.516 49.12C59.516 49.488 59.484 49.808 59.42 50.08H60.14ZM57.74 44.32C57.676 44.048 57.644 43.728 57.644 43.36C57.644 42.976 57.676 42.656 57.74 42.4C57.676 42.128 57.644 41.808 57.644 41.44C57.644 41.056 57.676 40.736 57.74 40.48H54.38C54.444 40.736 54.476 41.056 54.476 41.44C54.476 41.808 54.444 42.128 54.38 42.4C54.444 42.656 54.476 42.976 54.476 43.36C54.476 43.728 54.444 44.048 54.38 44.32H57.74ZM69.3654 39.52C69.3654 39.888 69.3334 40.208 69.2694 40.48H67.8294C67.8934 40.736 67.9254 41.056 67.9254 41.44C67.9254 41.808 67.8934 42.128 67.8294 42.4C67.8934 42.656 67.9254 42.976 67.9254 43.36C67.9254 43.728 67.8934 44.048 67.8294 44.32C67.8934 44.576 67.9254 44.896 67.9254 45.28C67.9254 45.648 67.8934 45.968 67.8294 46.24C67.8934 46.496 67.9254 46.816 67.9254 47.2C67.9254 47.568 67.8934 47.888 67.8294 48.16C67.8934 48.416 67.9254 48.736 67.9254 49.12C67.9254 49.488 67.8934 49.808 67.8294 50.08H66.8694C66.9334 50.336 66.9654 50.656 66.9654 51.04C66.9654 51.408 66.9334 51.728 66.8694 52H63.0294C62.9654 51.728 62.9334 51.408 62.9334 51.04C62.9334 50.656 62.9654 50.336 63.0294 50.08H62.0694C62.0054 49.808 61.9734 49.488 61.9734 49.12C61.9734 48.736 62.0054 48.416 62.0694 48.16H63.9894C64.0534 48.416 64.0854 48.736 64.0854 49.12C64.0854 49.488 64.0534 49.808 63.9894 50.08H65.9094C65.8454 49.808 65.8134 49.488 65.8134 49.12C65.8134 48.736 65.8454 48.416 65.9094 48.16C65.8454 47.888 65.8134 47.568 65.8134 47.2C65.8134 46.816 65.8454 46.496 65.9094 46.24C65.8454 45.968 65.8134 45.648 65.8134 45.28C65.8134 44.896 65.8454 44.576 65.9094 44.32C65.8454 44.048 65.8134 43.728 65.8134 43.36C65.8134 42.976 65.8454 42.656 65.9094 42.4C65.8454 42.128 65.8134 41.808 65.8134 41.44C65.8134 41.056 65.8454 40.736 65.9094 40.48H64.4694C64.4054 40.208 64.3734 39.888 64.3734 39.52C64.3734 39.136 64.4054 38.816 64.4694 38.56H69.2694C69.3334 38.816 69.3654 39.136 69.3654 39.52Z" fill="#FFBED2"/>
<defs>
<filter id="filter0_d" x="0" y="0" width="103" height="120" filterUnits="userSpaceOnUse" color-interpolation-filters="sRGB">
<feFlood flood-opacity="0" result="BackgroundImageFix"/>
<feColorMatrix in="SourceAlpha" type="matrix" values="0 0 0 0 0 0 0 0 0 0 0 0 0 0 0 0 0 0 127 0"/>
<feOffset dy="8"/>
<feGaussianBlur stdDeviation="12"/>
<feColorMatrix type="matrix" values="0 0 0 0 0.52549 0 0 0 0 0.415686 0 0 0 0 0.866667 0 0 0 1 0"/>
<feBlend mode="normal" in2="BackgroundImageFix" result="effect1_dropShadow"/>
<feBlend mode="normal" in="SourceGraphic" in2="effect1_dropShadow" result="shape"/>
</filter>
</defs>
</svg>
