<svg width="63" height="80" viewBox="0 0 63 80" fill="none" xmlns="http://www.w3.org/2000/svg">
<g filter="url(#filter0_d)">
<path d="M5 71V1H44.5858L58 14.4142V71H5Z" stroke="white" stroke-width="2"/>
<mask id="path-2-inside-1" fill="white">
<path d="M44.5 14V2.41421C44.5 1.52331 45.5771 1.07714 46.2071 1.70711L57.7929 13.2929C58.4229 13.9229 57.9767 15 57.0858 15H45.5C44.9477 15 44.5 14.5523 44.5 14Z"/>
</mask>
<path d="M42.5 2.41421V14H46.5V2.41421H42.5ZM45.5 17H57.0858V13H45.5V17ZM59.2071 11.8787L47.6213 0.292893L44.7929 3.12132L56.3787 14.7071L59.2071 11.8787ZM57.0858 17C59.7585 17 61.097 13.7686 59.2071 11.8787L56.3787 14.7071C55.7487 14.0771 56.1949 13 57.0858 13V17ZM42.5 14C42.5 15.6569 43.8431 17 45.5 17V13C46.0523 13 46.5 13.4477 46.5 14H42.5ZM46.5 2.41421C46.5 3.30512 45.4229 3.75128 44.7929 3.12132L47.6213 0.292893C45.7314 -1.597 42.5 -0.258502 42.5 2.41421H46.5Z" fill="white" mask="url(#path-2-inside-1)"/>
<path opacity="0.5" d="M39.14 48.16C39.204 48.416 39.236 48.736 39.236 49.12C39.236 49.488 39.204 49.808 39.14 50.08H38.18C38.244 50.336 38.276 50.656 38.276 51.04C38.276 51.408 38.244 51.728 38.18 52H33.38C33.316 51.728 33.284 51.408 33.284 51.04C33.284 50.656 33.316 50.336 33.38 50.08H32.42C32.356 49.808 32.324 49.488 32.324 49.12C32.324 48.736 32.356 48.416 32.42 48.16H31.46C31.396 47.888 31.364 47.568 31.364 47.2C31.364 46.816 31.396 46.496 31.46 46.24C31.396 45.968 31.364 45.648 31.364 45.28C31.364 44.896 31.396 44.576 31.46 44.32C31.396 44.048 31.364 43.728 31.364 43.36C31.364 42.976 31.396 42.656 31.46 42.4H32.42C32.356 42.128 32.324 41.808 32.324 41.44C32.324 41.056 32.356 40.736 32.42 40.48H33.38C33.316 40.208 33.284 39.888 33.284 39.52C33.284 39.136 33.316 38.816 33.38 38.56H38.18C38.244 38.816 38.276 39.136 38.276 39.52C38.276 39.888 38.244 40.208 38.18 40.48H39.14C39.204 40.736 39.236 41.056 39.236 41.44C39.236 41.808 39.204 42.128 39.14 42.4H37.22C37.156 42.128 37.124 41.808 37.124 41.44C37.124 41.056 37.156 40.736 37.22 40.48H34.34C34.404 40.736 34.436 41.056 34.436 41.44C34.436 41.808 34.404 42.128 34.34 42.4H33.38C33.444 42.656 33.476 42.976 33.476 43.36C33.476 43.728 33.444 44.048 33.38 44.32C33.444 44.576 33.476 44.896 33.476 45.28C33.476 45.648 33.444 45.968 33.38 46.24C33.444 46.496 33.476 46.816 33.476 47.2C33.476 47.568 33.444 47.888 33.38 48.16H34.34C34.404 48.416 34.436 48.736 34.436 49.12C34.436 49.488 34.404 49.808 34.34 50.08H37.22C37.156 49.808 37.124 49.488 37.124 49.12C37.124 48.736 37.156 48.416 37.22 48.16H39.14ZM48.8454 39.52C48.8454 39.888 48.8134 40.208 48.7494 40.48H45.8694C45.9334 40.736 45.9654 41.056 45.9654 41.44C45.9654 41.808 45.9334 42.128 45.8694 42.4C45.9334 42.656 45.9654 42.976 45.9654 43.36C45.9654 43.728 45.9334 44.048 45.8694 44.32C45.9334 44.576 45.9654 44.896 45.9654 45.28C45.9654 45.648 45.9334 45.968 45.8694 46.24C45.9334 46.496 45.9654 46.816 45.9654 47.2C45.9654 47.568 45.9334 47.888 45.8694 48.16C45.9334 48.416 45.9654 48.736 45.9654 49.12C45.9654 49.488 45.9334 49.808 45.8694 50.08C45.9334 50.336 45.9654 50.656 45.9654 51.04C45.9654 51.408 45.9334 51.728 45.8694 52H43.9494C43.8854 51.728 43.8534 51.408 43.8534 51.04C43.8534 50.656 43.8854 50.336 43.9494 50.08C43.8854 49.808 43.8534 49.488 43.8534 49.12C43.8534 48.736 43.8854 48.416 43.9494 48.16C43.8854 47.888 43.8534 47.568 43.8534 47.2C43.8534 46.816 43.8854 46.496 43.9494 46.24C43.8854 45.968 43.8534 45.648 43.8534 45.28C43.8534 44.896 43.8854 44.576 43.9494 44.32C43.8854 44.048 43.8534 43.728 43.8534 43.36C43.8534 42.976 43.8854 42.656 43.9494 42.4C43.8854 42.128 43.8534 41.808 43.8534 41.44C43.8534 41.056 43.8854 40.736 43.9494 40.48H41.0694C41.0054 40.208 40.9734 39.888 40.9734 39.52C40.9734 39.136 41.0054 38.816 41.0694 38.56H48.7494C48.8134 38.816 48.8454 39.136 48.8454 39.52Z" fill="#FFBED2"/>
<path opacity="0.5" d="M27.972 29.88C27.972 30.616 27.908 31.256 27.78 31.8C27.908 32.312 27.972 32.952 27.972 33.72C27.972 34.456 27.908 35.096 27.78 35.64H25.86C25.988 36.152 26.052 36.792 26.052 37.56C26.052 38.296 25.988 38.936 25.86 39.48H16.26C16.388 39.992 16.452 40.632 16.452 41.4C16.452 42.136 16.388 42.776 16.26 43.32C16.388 43.832 16.452 44.472 16.452 45.24C16.452 45.976 16.388 46.616 16.26 47.16C16.388 47.672 16.452 48.312 16.452 49.08C16.452 49.816 16.388 50.456 16.26 51H12.42C12.292 50.456 12.228 49.816 12.228 49.08C12.228 48.312 12.292 47.672 12.42 47.16C12.292 46.616 12.228 45.976 12.228 45.24C12.228 44.472 12.292 43.832 12.42 43.32C12.292 42.776 12.228 42.136 12.228 41.4C12.228 40.632 12.292 39.992 12.42 39.48C12.292 38.936 12.228 38.296 12.228 37.56C12.228 36.792 12.292 36.152 12.42 35.64C12.292 35.096 12.228 34.456 12.228 33.72C12.228 32.952 12.292 32.312 12.42 31.8C12.292 31.256 12.228 30.616 12.228 29.88C12.228 29.112 12.292 28.472 12.42 27.96C12.292 27.416 12.228 26.776 12.228 26.04C12.228 25.272 12.292 24.632 12.42 24.12H25.86C25.988 24.632 26.052 25.272 26.052 26.04C26.052 26.776 25.988 27.416 25.86 27.96H27.78C27.908 28.472 27.972 29.112 27.972 29.88ZM23.94 35.64C23.812 35.096 23.748 34.456 23.748 33.72C23.748 32.952 23.812 32.312 23.94 31.8C23.812 31.256 23.748 30.616 23.748 29.88C23.748 29.112 23.812 28.472 23.94 27.96H16.26C16.388 28.472 16.452 29.112 16.452 29.88C16.452 30.616 16.388 31.256 16.26 31.8C16.388 32.312 16.452 32.952 16.452 33.72C16.452 34.456 16.388 35.096 16.26 35.64H23.94Z" fill="#FFBED2"/>
<path opacity="0.5" d="M40.14 34.08C40.204 34.336 40.236 34.656 40.236 35.04C40.236 35.408 40.204 35.728 40.14 36H38.22C38.156 35.728 38.124 35.408 38.124 35.04C38.124 34.656 38.156 34.336 38.22 34.08H37.5C37.436 33.808 37.404 33.488 37.404 33.12C37.404 32.736 37.436 32.416 37.5 32.16H36.78C36.716 31.888 36.684 31.568 36.684 31.2C36.684 30.816 36.716 30.496 36.78 30.24H34.38C34.444 30.496 34.476 30.816 34.476 31.2C34.476 31.568 34.444 31.888 34.38 32.16C34.444 32.416 34.476 32.736 34.476 33.12C34.476 33.488 34.444 33.808 34.38 34.08C34.444 34.336 34.476 34.656 34.476 35.04C34.476 35.408 34.444 35.728 34.38 36H32.46C32.396 35.728 32.364 35.408 32.364 35.04C32.364 34.656 32.396 34.336 32.46 34.08C32.396 33.808 32.364 33.488 32.364 33.12C32.364 32.736 32.396 32.416 32.46 32.16C32.396 31.888 32.364 31.568 32.364 31.2C32.364 30.816 32.396 30.496 32.46 30.24C32.396 29.968 32.364 29.648 32.364 29.28C32.364 28.896 32.396 28.576 32.46 28.32C32.396 28.048 32.364 27.728 32.364 27.36C32.364 26.976 32.396 26.656 32.46 26.4C32.396 26.128 32.364 25.808 32.364 25.44C32.364 25.056 32.396 24.736 32.46 24.48C32.396 24.208 32.364 23.888 32.364 23.52C32.364 23.136 32.396 22.816 32.46 22.56H39.18C39.244 22.816 39.276 23.136 39.276 23.52C39.276 23.888 39.244 24.208 39.18 24.48H40.14C40.204 24.736 40.236 25.056 40.236 25.44C40.236 25.808 40.204 26.128 40.14 26.4H39.66C39.724 26.656 39.756 26.976 39.756 27.36C39.756 27.728 39.724 28.048 39.66 28.32H38.22C38.284 28.576 38.316 28.896 38.316 29.28C38.316 29.648 38.284 29.968 38.22 30.24H38.7C38.764 30.496 38.796 30.816 38.796 31.2C38.796 31.568 38.764 31.888 38.7 32.16H39.42C39.484 32.416 39.516 32.736 39.516 33.12C39.516 33.488 39.484 33.808 39.42 34.08H40.14ZM37.74 28.32C37.676 28.048 37.644 27.728 37.644 27.36C37.644 26.976 37.676 26.656 37.74 26.4C37.676 26.128 37.644 25.808 37.644 25.44C37.644 25.056 37.676 24.736 37.74 24.48H34.38C34.444 24.736 34.476 25.056 34.476 25.44C34.476 25.808 34.444 26.128 34.38 26.4C34.444 26.656 34.476 26.976 34.476 27.36C34.476 27.728 34.444 28.048 34.38 28.32H37.74ZM49.3654 23.52C49.3654 23.888 49.3334 24.208 49.2694 24.48H47.8294C47.8934 24.736 47.9254 25.056 47.9254 25.44C47.9254 25.808 47.8934 26.128 47.8294 26.4C47.8934 26.656 47.9254 26.976 47.9254 27.36C47.9254 27.728 47.8934 28.048 47.8294 28.32C47.8934 28.576 47.9254 28.896 47.9254 29.28C47.9254 29.648 47.8934 29.968 47.8294 30.24C47.8934 30.496 47.9254 30.816 47.9254 31.2C47.9254 31.568 47.8934 31.888 47.8294 32.16C47.8934 32.416 47.9254 32.736 47.9254 33.12C47.9254 33.488 47.8934 33.808 47.8294 34.08H46.8694C46.9334 34.336 46.9654 34.656 46.9654 35.04C46.9654 35.408 46.9334 35.728 46.8694 36H43.0294C42.9654 35.728 42.9334 35.408 42.9334 35.04C42.9334 34.656 42.9654 34.336 43.0294 34.08H42.0694C42.0054 33.808 41.9734 33.488 41.9734 33.12C41.9734 32.736 42.0054 32.416 42.0694 32.16H43.9894C44.0534 32.416 44.0854 32.736 44.0854 33.12C44.0854 33.488 44.0534 33.808 43.9894 34.08H45.9094C45.8454 33.808 45.8134 33.488 45.8134 33.12C45.8134 32.736 45.8454 32.416 45.9094 32.16C45.8454 31.888 45.8134 31.568 45.8134 31.2C45.8134 30.816 45.8454 30.496 45.9094 30.24C45.8454 29.968 45.8134 29.648 45.8134 29.28C45.8134 28.896 45.8454 28.576 45.9094 28.32C45.8454 28.048 45.8134 27.728 45.8134 27.36C45.8134 26.976 45.8454 26.656 45.9094 26.4C45.8454 26.128 45.8134 25.808 45.8134 25.44C45.8134 25.056 45.8454 24.736 45.9094 24.48H44.4694C44.4054 24.208 44.3734 23.888 44.3734 23.52C44.3734 23.136 44.4054 22.816 44.4694 22.56H49.2694C49.3334 22.816 49.3654 23.136 49.3654 23.52Z" fill="#FFBED2"/>
</g>
<defs>
<filter id="filter0_d" x="0" y="0" width="63" height="80" filterUnits="userSpaceOnUse" color-interpolation-filters="sRGB">
<feFlood flood-opacity="0" result="BackgroundImageFix"/>
<feColorMatrix in="SourceAlpha" type="matrix" values="0 0 0 0 0 0 0 0 0 0 0 0 0 0 0 0 0 0 127 0"/>
<feOffset dy="4"/>
<feGaussianBlur stdDeviation="2"/>
<feColorMatrix type="matrix" values="0 0 0 0 0 0 0 0 0 0 0 0 0 0 0 0 0 0 0.25 0"/>
<feBlend mode="normal" in2="BackgroundImageFix" result="effect1_dropShadow"/>
<feBlend mode="normal" in="SourceGraphic" in2="effect1_dropShadow" result="shape"/>
</filter>
</defs>
</svg>
