<svg width="24" height="24" viewBox="0 0 24 24" fill="none" xmlns="http://www.w3.org/2000/svg">
<g clip-path="url(#clip0)">
<path d="M12.5635 17.7643H17.0753C17.5235 16.0526 17.7657 14.2934 17.7968 12.5242H12.5635V17.7643Z" fill="#D3708E"/>
<path d="M12.5635 24C14.2791 23.6589 15.8035 21.6671 16.7598 18.8123H12.5635V24Z" fill="#D3708E"/>
<path d="M17.8882 18.8123C17.3963 20.6028 16.4857 22.2508 15.2314 23.6201C17.9752 22.8614 20.3633 21.1588 21.975 18.8123H17.8882Z" fill="#D3708E"/>
<path d="M24.0785 12.5242H18.8446C18.8189 14.2902 18.596 16.0478 18.1802 17.7643H22.6212C23.5024 16.1525 24.001 14.3595 24.0785 12.5242Z" fill="#D3708E"/>
<path d="M15.2314 0.379883C16.4857 1.74922 17.3963 3.39717 17.8882 5.18774H21.9756C20.3637 2.84108 17.9754 1.13849 15.2314 0.379883Z" fill="#D3708E"/>
<path d="M12.5635 11.476H17.7968C17.7657 9.70679 17.5235 7.94762 17.0753 6.23584H12.5635V11.476Z" fill="#D3708E"/>
<path d="M24.0785 11.476C24.001 9.64065 23.5024 7.8477 22.6212 6.23584H18.1802C18.596 7.95238 18.8189 9.71 18.8446 11.476H24.0785Z" fill="#D3708E"/>
<path d="M12.5635 0V5.18777H16.7598C15.8035 2.33502 14.2791 0.343231 12.5635 0Z" fill="#D3708E"/>
<path d="M11.5151 12.5242H6.28174C6.31309 14.2934 6.55532 16.0525 7.00331 17.7643H11.5151V12.5242Z" fill="#D3708E"/>
<path d="M11.5151 6.23584H7.00331C6.55532 7.94767 6.31309 9.70682 6.28174 11.476H11.5151V6.23584Z" fill="#D3708E"/>
<path d="M11.5152 24V18.8123H7.31885C8.27518 21.665 9.79955 23.6568 11.5152 24Z" fill="#D3708E"/>
<path d="M11.5152 0C9.79955 0.341135 8.27518 2.33293 7.31885 5.18777H11.5152V0Z" fill="#D3708E"/>
<path d="M0 11.476H5.23389C5.25961 9.71 5.48247 7.95238 5.89834 6.23584H1.45782C0.576224 7.84756 0.0774092 9.64057 0 11.476Z" fill="#D3708E"/>
<path d="M8.84759 0.379883C6.10385 1.13872 3.71583 2.84127 2.104 5.18774H6.19134C6.68288 3.39713 7.59337 1.74914 8.84759 0.379883Z" fill="#D3708E"/>
<path d="M5.89834 17.7643C5.48247 16.0478 5.25961 14.2902 5.23389 12.5242H0C0.0774092 14.3596 0.576224 16.1526 1.45782 17.7643H5.89834Z" fill="#D3708E"/>
<path d="M8.84759 23.6201C7.59337 22.2509 6.68288 20.6029 6.19134 18.8123H2.104C3.71583 21.1587 6.10385 22.8613 8.84759 23.6201Z" fill="#D3708E"/>
</g>
<defs>
<clipPath id="clip0">
<rect width="24" height="24" fill="white"/>
</clipPath>
</defs>
</svg>
