<svg width="148" height="36" viewBox="0 0 148 36" fill="none" xmlns="http://www.w3.org/2000/svg">
<path d="M107.589 10.4305C106.885 12.7093 103.618 14.2709 97.7909 15.1065L83.8769 17.0809L84.2253 15.9421C85.3777 12.1957 87.0169 9.63774 89.1325 8.28254C91.2465 6.93014 94.6925 6.24734 99.4689 6.24734C105.745 6.24774 108.449 7.64494 107.589 10.4305ZM30.3717 28.4474C28.1117 28.7994 24.8745 28.979 20.6437 28.979C13.2973 28.979 10.0877 27.4938 11.0173 24.5301C11.6837 22.4049 13.6089 21.1274 16.8049 20.6954L33.5145 18.4537L30.3717 28.4474ZM146.856 1.69294C146.357 0.957339 145.753 0.455338 143.263 0.266138C142.611 0.215738 140.448 0.146136 136.82 0.146136C127.272 0.146136 120.789 3.04414 117.47 8.75894C118.383 3.00734 112.779 0.125339 100.634 0.125339C86.3817 0.125339 77.4861 5.87214 73.9365 17.3457C72.6197 21.6125 72.4873 25.1101 73.5249 27.8466L70.1593 28.0697C67.5309 28.2682 64.0725 28.4474 61.9533 28.4474C56.7393 28.4474 53.4989 27.5705 52.2465 25.8213C51.1289 24.2549 51.2377 21.3402 52.5481 17.0813C54.7217 10.0377 60.1125 6.86494 68.7249 6.86494C73.1873 6.85414 77.5369 7.33254 77.5369 7.33254C78.1337 7.29414 78.4013 6.66974 78.3341 6.15294L78.2489 5.48174L77.9417 3.11294C77.7425 1.55894 76.5853 0.632937 74.4629 0.346137C72.5293 0.216537 71.0925 0.126138 68.9745 0.126138C68.9337 0.126138 68.8941 0.130136 68.8557 0.130136C57.6009 0.154936 49.7549 3.85654 45.3237 11.2181C46.9481 3.82534 41.7445 0.124939 29.6897 0.124939C22.9873 0.124939 18.1841 0.318938 15.2725 0.698539C13.0369 0.976939 11.6745 1.90334 11.1825 3.47334L10.2253 6.51494C10.0521 7.07254 10.3205 7.35054 11.0365 7.35054L11.0573 7.34694C11.5881 7.27894 13.6265 7.07734 17.1121 6.79934C21.7209 6.43294 25.1373 6.24774 27.3801 6.24774C34.0157 6.24774 36.8145 7.90614 35.7761 11.2257C35.5489 11.9625 35.0417 12.4197 34.2689 12.5969C27.9909 13.6341 23.0117 14.3821 19.3285 14.8385C8.95769 16.1589 2.97129 19.3885 1.35289 24.5301C-0.856712 31.5998 4.68729 35.1362 17.9821 35.1362C24.6153 35.1362 30.1837 34.7494 34.6833 33.9926C37.2749 33.5566 38.5889 32.8966 39.1117 31.2246L41.5821 23.3454C41.3261 31.2162 46.8489 35.187 58.1665 35.187C63.0653 35.187 67.7101 35.0234 69.9049 34.6422C72.2257 34.2414 73.3333 33.7358 73.8453 31.9846L74.3469 29.5014C76.7589 33.2586 82.0501 35.1366 90.2113 35.1366C98.8253 35.1366 103.854 34.8954 105.284 34.4154C106.482 34.0358 107.226 33.4206 107.486 32.5542C107.541 32.4014 107.562 32.239 107.589 32.0586L108.626 28.7142C108.8 28.1334 108.536 27.855 107.825 27.8794L102.315 28.1437C98.6385 28.3421 95.7533 28.4486 93.6749 28.4486C89.7633 28.4486 87.0773 28.1826 85.6085 27.6481C83.4301 26.8093 82.3981 25.1458 82.4929 22.6282L99.9541 20.3929C107.777 19.3913 113.015 16.9821 115.664 13.1597L109.751 33.7702C109.639 34.1578 109.684 34.4742 109.881 34.703C110.102 34.9562 110.48 35.0858 111.037 35.0858H118.266C119.527 35.0858 119.978 34.4314 120.134 33.8842L126.52 11.6449C127.362 8.72094 130.054 7.29454 134.75 7.29454C138.988 7.29454 142.187 7.33294 144.229 7.41094C144.284 7.41214 144.335 7.41214 144.39 7.41214C144.784 7.41214 145.508 7.27014 145.864 6.29814L146.988 3.24654C147.201 2.65254 147.155 2.13174 146.856 1.69294Z" fill="white"/>
</svg>
