<svg width="159" height="38" viewBox="0 0 159 38" fill="none" xmlns="http://www.w3.org/2000/svg">
<path d="M37.8756 35.3299H29.1556L26.4756 28.8899H11.9156L9.47561 35.3299H0.87561L13.9956 2.76994H23.3956L37.8756 35.3299ZM18.8356 10.5699L14.0756 23.2099H24.0756L18.8356 10.5699ZM69.6356 2.76994H76.7156V35.3299H68.5956V14.9699L59.7956 25.1699H58.5556L49.7556 14.9699V35.3299H41.6356V2.76994H48.7156L59.1556 14.8499L69.6356 2.76994ZM97.2756 2.76994C109.156 2.76994 115.276 10.1699 115.276 19.0899C115.276 28.4499 109.356 35.3299 96.3556 35.3299H82.8756V2.76994H97.2756ZM91.0356 29.3699H96.3556C104.516 29.3699 106.956 23.8099 106.956 19.0499C106.956 13.4499 103.956 8.72993 96.2756 8.72993H91.0756L91.0356 29.3699ZM131.436 10.4899L121.196 0.249939H158.476V37.5299L148.236 27.2899V10.4899H131.436ZM131.436 12.5299L120.876 23.0899V37.8499H135.636L146.196 27.2899H131.436V12.5299Z" fill="white"/>
</svg>
