<svg width="144" height="58" viewBox="0 0 144 58" fill="none" xmlns="http://www.w3.org/2000/svg">
<path d="M138.041 6.71512C138.841 6.71512 139.561 6.39512 140.081 5.83512C140.641 5.27512 140.961 4.55512 140.961 3.79512C140.961 2.99512 140.721 2.27512 140.081 1.75512C139.521 1.19512 138.801 0.875122 138.041 0.875122C137.241 0.875122 136.521 1.19512 136.001 1.75512C135.441 2.31512 135.121 3.03512 135.121 3.79512C135.121 4.59512 135.441 5.31512 136.001 5.83512C136.521 6.39512 137.241 6.71512 138.041 6.71512ZM136.521 2.19512C136.921 1.71512 137.481 1.47512 138.121 1.47512C138.761 1.47512 139.241 1.71512 139.721 2.19512C140.121 2.59512 140.361 3.15512 140.361 3.79512C140.361 4.43512 140.121 4.91512 139.721 5.39512C139.321 5.87512 138.761 6.11512 138.121 6.11512C137.481 6.11512 137.001 5.87512 136.521 5.39512C136.121 4.99512 135.881 4.43512 135.881 3.79512C135.881 3.15512 136.041 2.67512 136.521 2.19512ZM137.641 4.07512H137.881L138.761 5.11512H139.721L138.681 3.91512C138.921 3.83512 139.081 3.75512 139.161 3.59512C139.241 3.43512 139.321 3.27512 139.321 3.03512C139.321 2.87512 139.321 2.71512 139.241 2.63512C139.161 2.55512 139.081 2.47512 138.921 2.39512C138.761 2.31512 138.681 2.23512 138.521 2.23512C138.441 2.23512 138.281 2.23512 138.041 2.23512H136.921V5.07512H137.641V4.07512ZM137.641 2.67512H137.881C137.961 2.67512 138.041 2.67512 138.121 2.67512C138.121 2.67512 138.201 2.75512 138.281 2.75512C138.361 2.83512 138.441 2.83512 138.441 2.91512C138.441 2.99512 138.441 2.99512 138.441 3.07512C138.441 3.15512 138.441 3.23512 138.441 3.23512C138.441 3.31512 138.441 3.39512 138.361 3.39512C138.281 3.39512 138.201 3.47512 138.121 3.47512C138.041 3.47512 137.961 3.47512 137.801 3.47512H137.641V2.67512ZM140.561 12.7151C137.401 7.51512 131.321 3.79512 124.121 3.79512H19.8805C12.7605 3.79512 6.68053 7.51512 3.44053 12.7151C0.680527 17.6351 0.0405273 25.5151 0.0405273 30.7551C0.0405273 35.9551 0.680527 43.9551 3.44053 48.7951C6.60053 53.9951 12.6805 57.7151 19.8805 57.7151H124.121C131.241 57.7151 137.321 53.9951 140.561 48.7951C143.321 43.9551 143.961 35.9951 143.961 30.7551C143.961 25.5151 143.321 17.5151 140.561 12.7151ZM74.9205 52.9551H21.2405C17.0405 52.9551 12.2405 50.9151 9.68053 48.1951C5.64053 43.8351 4.76053 37.1151 4.76053 30.7151C4.76053 24.3151 5.64053 17.5951 9.68053 13.2351C12.2005 10.5551 17.1205 8.47512 21.2405 8.47512H74.9205V52.9551ZM105.841 31.8351H89.2405V32.0751C89.2405 36.5951 89.9605 38.1551 93.6805 38.1551C96.1205 38.1551 98.0405 37.9151 98.2005 35.1551H105.881C105.801 38.7151 104.601 40.7551 102.561 41.9551C100.441 43.1551 97.4005 43.4751 93.7205 43.4751C83.8405 43.4751 81.4805 40.1551 81.4805 30.7551C81.4805 21.0351 83.6005 17.9551 93.7205 17.9551C103.121 17.9551 105.881 20.4751 105.881 30.7551V31.8351H105.841ZM130.441 23.7951H124.601V43.4751H116.601V23.7951H110.761V18.0351H110.841H130.441V23.7951ZM62.2005 36.2751C62.2005 34.9951 61.8005 34.3151 61.0005 33.9151C60.1205 33.5151 58.6405 33.5951 57.6805 33.5951C47.0805 33.5951 45.3605 31.3151 45.3605 26.2351C45.3605 18.1551 50.5205 17.9951 57.6805 17.9951C62.4405 17.9951 68.7605 18.0751 68.7605 24.0751V25.1151H61.2405C60.9205 23.1551 59.2805 22.9951 57.6805 22.9951C53.2405 22.9951 53.0805 23.5551 53.0805 25.1951C53.0805 26.6351 53.3205 27.5551 57.6805 27.6351C66.3605 27.8751 70.0005 28.3551 70.0005 35.3151C70.0005 42.5951 64.4005 43.7151 57.6805 43.7151C56.0005 43.7151 54.4405 43.7151 52.9205 43.6351C48.0005 43.2351 45.4005 41.4351 45.3205 35.8751H53.2405C53.4005 38.6351 55.5205 38.7151 57.6005 38.7151C61.4005 38.7151 62.2005 38.4751 62.2005 36.2751ZM98.0005 27.5551V27.7951H89.2405C89.3205 24.3151 89.9605 23.1951 93.5205 23.2751C96.4405 23.3151 98.0005 23.5551 98.0005 27.5551ZM15.4405 30.9151C15.4405 40.3151 17.8005 43.7151 27.7605 43.7151C31.4805 43.7151 34.4805 43.3951 36.6805 42.1951C38.7205 40.9951 40.0005 38.9551 40.0005 35.2351H32.1605C32.0805 37.9151 30.2805 38.2351 27.7205 38.2351C24.0805 38.2351 23.3605 36.7151 23.3605 32.2351V32.0751H39.9605V30.8751C39.9605 20.5951 37.2005 17.9951 27.7205 17.9951C17.6805 17.9951 15.4405 21.1551 15.4405 30.9151ZM27.6405 23.4751C30.4805 23.4751 32.0805 23.7951 32.0805 27.6751V27.8351H23.4405C23.5205 24.4751 24.2405 23.4751 27.6405 23.4751Z" fill="white"/>
</svg>
