<svg width="156" height="33" viewBox="0 0 156 33" fill="none" xmlns="http://www.w3.org/2000/svg">
<path d="M27.64 0.679993H29.04C31.68 1.15999 33.32 4.23999 32 6.63999C30.64 9.47999 26.08 9.55999 24.6 6.79999C23.04 4.35999 24.8 1.03999 27.64 0.679993ZM33.32 1.83999C35.7601 1.87999 38.16 1.83999 40.6 1.83999C40.6 11.8 40.64 21.76 40.5601 31.76C38.12 31.72 35.72 31.76 33.28 31.76C33.32 21.76 33.2801 11.8 33.32 1.83999ZM42.0401 1.83999C44.44 1.79999 46.8801 1.83999 49.32 1.79999C49.4001 11.76 49.32 21.72 49.36 31.72C46.92 31.72 44.5201 31.72 42.08 31.72C42.04 21.76 42.08 11.8 42.0401 1.83999ZM50.9201 1.83999C53.3601 1.83999 55.8 1.83999 58.2001 1.83999C58.2001 4.95999 58.2401 8.12 58.2001 11.24C61.48 9.35999 65.7201 9.55999 68.9201 11.52C71.48 13 73.08 15.68 73.8 18.48C74.48 15.68 76.24 13.08 78.76 11.52C82.64 8.99999 88.08 9.23999 91.7201 12.12C93.76 13.68 95.1201 16 95.84 18.44C96.5201 14.68 99.3201 11.28 103.08 10.32C105.88 9.43999 109.04 9.95999 111.36 11.8C111.36 11.4 111.32 10.64 111.32 10.28C113.76 10.28 116.2 10.28 118.64 10.28C118.64 17.44 118.64 24.6 118.64 31.76C116.2 31.76 113.76 31.76 111.32 31.76C111.32 31.48 111.36 30.92 111.36 30.64C105.52 34.44 96.6401 30.44 95.84 23.48C95.0801 26.2 93.4001 28.76 90.9201 30.28C86.9201 32.88 81.32 32.52 77.68 29.48C75.72 27.92 74.4001 25.68 73.84 23.28C73.2001 26.64 71.08 29.76 67.9201 31.16C64.7601 32.68 60.76 32.24 58.16 29.88C58.16 30.48 58.16 31.12 58.16 31.76C55.76 31.76 53.3601 31.76 51 31.76C50.92 21.76 50.8801 11.8 50.9201 1.83999ZM59.88 17.84C58.12 18.88 58.2401 21.32 58.7201 23C59.9601 25.4 63.6 25.92 65.36 23.88C67.68 21.96 66.5201 17.24 63.2401 17.48C63.5201 17.36 63.7601 17.2 64.0401 17.08C62.6401 17 61.04 16.8 59.88 17.84ZM83.16 16.96C80.68 17.8 79.6801 21.24 81.4401 23.24C83.2801 25.76 87.8 25.08 88.68 22.04C90 18.88 86.2401 15.56 83.16 16.96ZM105.08 17.04C102.36 17.88 101.36 21.6 103.36 23.64C105.56 26.16 110.68 24.76 110.56 21.16C111 18.24 107.72 16.08 105.08 17.04ZM0.800049 1.83999C3.20005 1.83999 5.64005 1.83999 8.08005 1.83999C8.08005 4.95999 8.12005 8.08 8.08005 11.24C12.48 8.72 18.68 9.99999 21.68 14.12C24.56 18.04 24.6 23.84 21.8 27.8C18.88 32.2 12.04 33.56 7.96005 29.84C7.96005 30.28 7.96005 31.24 8.00005 31.72C5.60005 31.72 3.24005 31.72 0.840049 31.72L0.800049 1.83999ZM10.84 17.24C7.80005 18.16 7.16005 22.76 9.88005 24.4C12.4 26.36 16.56 24.28 16.4 21.08C16.6 18.28 13.36 16.2 10.84 17.24ZM148.12 1.83999C150.52 1.83999 152.96 1.83999 155.4 1.83999V31.76C153.04 31.76 150.64 31.76 148.28 31.76C148.28 31.32 148.28 30.36 148.28 29.88C147 30.8 145.6 31.72 144 31.88C140.24 32.56 136.28 30.68 134.24 27.52C131.04 22.72 131.92 15.4 136.72 11.96C139.96 9.55999 144.64 9.23999 148.12 11.2C148.12 8.07999 148.12 4.95999 148.12 1.83999ZM142.68 17.08C139.84 17.76 138.68 21.72 140.8 23.76C142.84 26.08 147.2 25.08 147.88 22.04C148.84 19.04 145.64 16.16 142.68 17.08ZM24.6 10.2C27.04 10.2 29.48 10.2 31.88 10.2C31.88 17.36 31.88 24.56 31.88 31.72C29.44 31.72 27.04 31.72 24.6 31.72C24.6 24.56 24.6 17.4 24.6 10.2ZM119.96 10.2C122.4 10.2 124.84 10.2 127.28 10.2C127.28 10.68 127.28 11.68 127.28 12.16C128.48 10.72 130.28 9.99999 132.12 9.91999C132.12 12.4 132.12 14.88 132.12 17.32C130.88 17.44 129.4 17.36 128.44 18.28C127.52 19.08 127.28 20.36 127.28 21.56C127.24 24.96 127.28 28.32 127.28 31.68C124.84 31.64 122.44 31.68 120 31.68C119.96 24.52 119.96 17.4 119.96 10.2ZM32.7201 4.71999C32.7201 7.11999 30.76 9.04 28.28 9.04C25.8 9.04 23.8 7.07999 23.8 4.71999C23.8 2.32 25.8 0.439994 28.28 0.439994C30.76 0.399994 32.7201 2.36 32.7201 4.71999Z" fill="white"/>
</svg>
