<svg width="156" height="49" viewBox="0 0 156 49" fill="none" xmlns="http://www.w3.org/2000/svg">
<path d="M23.6394 0.625122C10.1994 0.625122 0.159424 11.3451 0.159424 24.1051C0.159424 37.5451 10.8794 48.2651 23.6394 48.2651C37.0794 48.2651 47.1194 37.5451 47.1194 24.1051C47.1194 11.3851 37.0394 0.625122 23.6394 0.625122ZM23.6394 10.7051C34.3594 10.7051 42.4394 17.4251 45.7994 24.1451C42.4394 30.8651 34.3994 38.2251 23.6394 38.2251C12.8794 38.2251 4.83942 31.5051 1.47942 24.1451C4.83942 18.1051 12.8794 10.7051 23.6394 10.7051ZM23.6394 12.0651C16.9194 12.0651 10.8794 17.4251 10.8794 24.8251C10.8794 32.2251 16.2394 37.5851 23.6394 37.5851C31.0394 37.5851 36.3994 31.5051 36.3994 24.7851C36.3994 17.4251 30.3594 12.0651 23.6394 12.0651ZM69.2794 3.98512C57.1994 3.98512 48.4794 13.3851 48.4794 24.7851C48.4794 36.1851 57.1994 45.5851 69.2794 45.5851C76.6794 45.5851 81.3594 42.9051 85.3994 38.1851L79.9994 32.8651C76.6394 35.5451 73.9594 37.5451 69.2794 37.5451C62.5594 37.5451 57.8794 31.5051 57.8794 24.7851C57.8794 18.0651 62.5594 12.0251 69.2794 12.0251C73.3194 12.0251 76.6794 14.0251 79.3594 16.7051L84.7194 9.98512C82.0394 6.02512 77.3194 3.98512 69.2794 3.98512ZM88.7194 4.66512V44.9451H107.519C116.239 44.9451 122.279 41.5851 122.279 34.2251C122.279 28.8651 119.599 26.1851 114.879 24.1451C117.559 22.7851 120.239 20.1051 120.239 15.4251C120.239 12.7451 119.559 10.7451 117.559 8.70512C115.559 6.70512 111.519 5.34512 106.839 5.34512H88.7194V4.66512ZM97.4794 12.0651H106.199C110.239 12.0651 112.239 13.4251 112.239 16.1051C112.239 18.7851 109.559 20.1451 105.519 20.1451H97.4794V12.0651ZM97.4794 28.1451H107.559C112.239 28.1451 114.279 29.5051 114.279 32.1851C114.279 34.8651 111.599 36.2251 108.239 36.2251H97.5194V28.1451H97.4794ZM140.439 3.98512C132.399 3.98512 126.359 8.66512 126.359 16.0651C126.359 24.1051 131.719 26.1451 139.799 28.1451C146.519 30.1451 147.839 30.8251 147.839 33.5051C147.839 35.5051 145.839 37.5451 141.799 37.5451C137.119 37.5451 133.759 35.5451 129.719 32.8651L124.359 38.9051C129.039 42.9451 135.079 45.6251 141.119 45.6251C149.839 45.6251 155.879 40.9451 155.879 33.5451C155.879 26.8251 151.199 23.4651 143.119 21.4651C136.399 19.4651 134.399 18.7851 134.399 16.1051C134.399 14.1051 136.399 12.7451 139.759 12.7451C143.119 12.7451 146.479 14.1051 150.479 16.7851L155.159 10.0651C151.159 6.02512 146.479 3.98512 140.439 3.98512Z" fill="white"/>
</svg>
