<svg width="161" height="120" viewBox="0 0 161 120" fill="none" xmlns="http://www.w3.org/2000/svg">
<g clip-path="url(#clip0)">
<path d="M20.92 49.72L11.96 55.44L20.92 61.16L11.96 66.88L3 61.12L11.96 55.4L3 49.72L11.96 44L20.92 49.72ZM11.92 68.68L20.88 62.96L29.84 68.68L20.88 74.4L11.92 68.68ZM20.92 61.12L29.88 55.4L20.92 49.72L29.84 44L38.8 49.72L29.84 55.44L38.8 61.16L29.84 66.88L20.92 61.12Z" fill="white"/>
<path d="M45.8 49.72H53.0401C57.6801 49.72 61.4801 52.4 61.4801 58.48V59.76C61.4801 65.92 57.9201 68.68 53.2001 68.68H45.8V49.72ZM49.84 53.16V65.2H52.9201C55.5601 65.2 57.3201 63.48 57.3201 59.68V58.68C57.3201 54.88 55.4801 53.16 52.8001 53.16H49.84ZM63.6001 53.32H66.8401L67.3601 56.88C67.9601 54.44 69.5601 53.16 72.4001 53.16H73.4001V57.24H71.7201C68.4401 57.24 67.6401 58.4 67.6401 61.64V68.68H63.6401V53.28H63.6001V53.32ZM74.2401 61.36V60.92C74.2401 55.76 77.5201 52.96 82.0001 52.96C86.5601 52.96 89.7601 55.76 89.7601 60.92V61.36C89.7601 66.4 86.6801 69.12 82.0001 69.12C77.0401 69.08 74.2401 66.4 74.2401 61.36ZM85.6801 61.28V60.88C85.6801 58.04 84.2401 56.32 81.9601 56.32C79.7201 56.32 78.2401 57.88 78.2401 60.88V61.28C78.2401 64.04 79.6801 65.6 81.9601 65.6C84.2401 65.6 85.6801 64.08 85.6801 61.28ZM91.8801 53.32H95.2001L95.6001 56.24C96.4001 54.28 98.1201 52.96 100.64 52.96C104.56 52.96 107.12 55.76 107.12 60.96V61.4C107.12 66.44 104.28 69.12 100.64 69.12C98.2001 69.12 96.5601 68.04 95.7201 66.28V74.04H91.8001L91.8801 53.32ZM103.08 61.28V60.96C103.08 57.92 101.52 56.4 99.4001 56.4C97.1601 56.4 95.6801 58.12 95.6801 60.96V61.24C95.6801 63.96 97.1201 65.68 99.3601 65.68C101.64 65.64 103.08 64.16 103.08 61.28ZM113.04 65.88L112.72 68.68H109.28V48.2H113.2V56.08C114.04 54.08 115.76 53 118.2 53C121.88 53.04 124.6 55.56 124.6 60.68V61.16C124.6 66.24 122.04 69.16 118.12 69.16C115.52 69.08 113.84 67.88 113.04 65.88ZM120.48 61.12V60.72C120.48 57.92 118.96 56.32 116.8 56.32C114.6 56.32 113.08 58.08 113.08 60.76V61.08C113.08 63.92 114.56 65.6 116.76 65.6C119.08 65.64 120.48 64.16 120.48 61.12ZM126.28 61.36V60.92C126.28 55.76 129.56 52.96 134.04 52.96C138.6 52.96 141.8 55.76 141.8 60.92V61.36C141.8 66.4 138.64 69.12 134.04 69.12C129.08 69.08 126.28 66.4 126.28 61.36ZM137.76 61.28V60.88C137.76 58.04 136.32 56.32 134.04 56.32C131.8 56.32 130.32 57.88 130.32 60.88V61.28C130.32 64.04 131.76 65.6 134.04 65.6C136.32 65.6 137.76 64.08 137.76 61.28ZM147.04 60.72L141.64 53.32H146.28L149.36 57.96L152.52 53.32H157.08L151.6 60.64L157.36 68.64H152.84L149.32 63.56L145.88 68.64H141.2L147.04 60.72Z" fill="white"/>
</g>
<defs>
<clipPath id="clip0">
<rect width="160.4" height="120" fill="white"/>
</clipPath>
</defs>
</svg>
