<svg width="88" height="89" viewBox="0 0 88 89" fill="none" xmlns="http://www.w3.org/2000/svg">
<path d="M44.0023 0.875C19.9599 0.875 0.399902 20.435 0.399902 44.4782C0.399902 68.5214 19.9599 88.0818 44.0023 88.0818C68.0451 88.0818 87.6047 68.5218 87.6047 44.4782C87.6047 20.435 68.0451 0.875 44.0023 0.875ZM44.0023 82.4334C23.0735 82.4334 6.0471 65.407 6.0471 44.4774C6.0471 23.5486 23.0731 6.5218 44.0023 6.5218C64.9307 6.5218 81.9579 23.5486 81.9579 44.4774C81.9579 65.407 64.9307 82.4334 44.0023 82.4334ZM58.8159 31.7598H59.1599V30.093H59.7803V29.799H58.1971V30.093H58.8159V31.7598ZM60.3291 30.2446H60.3355L60.8795 31.7598H61.1595L61.7027 30.2446H61.7111V31.7598H62.0343V29.7994H61.5591L61.0335 31.333H61.0251L60.4863 29.7994H60.0035V31.7598H60.3291V30.2446ZM50.4263 29.7974H28.9763L25.7215 35.0278H47.1467L50.4263 29.7974ZM54.8099 29.8474L41.6971 50.7274H27.1519L30.5075 45.4926H39.2259L42.5555 40.2606H22.4011L19.0715 45.4926H23.8467L17.2219 55.9442H44.8675L55.0787 39.841L58.8019 45.4926H55.4447L52.2655 50.7274H62.2071L65.6595 55.9442H72.0011L54.8099 29.8474Z" fill="white"/>
</svg>
