<svg width="114" height="38" viewBox="0 0 114 38" fill="none" xmlns="http://www.w3.org/2000/svg">
<path d="M69.7193 37.48H78.7193V0.240051H69.7193C69.7193 0.280051 69.7193 37.48 69.7193 37.48ZM53.9193 26.88C53.9193 28.2 52.8393 29.28 51.5193 29.28H46.2793C44.9593 29.28 43.8793 28.2 43.8793 26.88V11.88H34.8793V27.6C34.8793 34.04 38.9993 37.44 45.0793 37.44H53.8793C59.4793 37.44 62.8793 33.4 62.8793 27.6V11.88H53.8793C53.9193 11.88 53.9193 26.4 53.9193 26.88ZM104.479 11.88V26.88C104.479 28.2 103.399 29.28 102.079 29.28H96.8393C95.5193 29.28 94.4393 28.2 94.4393 26.88V11.88H85.4393V27.6C85.4393 34.04 89.5593 37.44 95.6393 37.44H104.439C110.039 37.44 113.439 33.4 113.439 27.6V11.88H104.479ZM18.3193 11.88H12.5593C10.5193 11.88 9.51933 12.4 9.51933 12.4V0.280051H0.559326V37.44H9.47932V22.48C9.47932 21.16 10.5593 20.08 11.8793 20.08H17.1193C18.4393 20.08 19.5193 21.16 19.5193 22.48V37.48H28.5193V21.28C28.5193 14.48 23.9593 11.88 18.3193 11.88Z" fill="white"/>
</svg>
