<svg width="98" height="76" viewBox="0 0 98 76" fill="none" xmlns="http://www.w3.org/2000/svg">
<path fill-rule="evenodd" clip-rule="evenodd" d="M96.7596 57.94C94.8796 60.34 90.1996 62.06 90.1996 62.06L55.5996 74.5V65.34L81.0796 56.26C83.9596 55.22 84.3996 53.74 82.0796 52.98C79.7196 52.22 75.4796 52.42 72.5996 53.46L55.6396 59.42V49.9L56.5996 49.58C56.5996 49.58 61.5196 47.86 68.3996 47.06C75.2796 46.3 83.7596 47.18 90.3596 49.66C97.7996 52.06 98.6396 55.54 96.7596 57.94ZM58.8796 42.3V18.86C58.8796 16.1 58.3596 13.58 55.7996 12.86C53.8396 12.22 52.5996 14.06 52.5996 16.82V75.54L36.7596 70.5V0.5C43.4796 1.74 53.3196 4.7 58.5596 6.5C71.9596 11.1 76.5196 16.82 76.5196 29.74C76.5196 42.3 68.7596 47.1 58.8796 42.3ZM7.67956 64.34C-0.000442505 62.18 -1.28044 57.66 2.23956 55.1C5.47956 52.7 10.9596 50.9 10.9596 50.9L33.6796 42.82V52.02L17.3196 57.86C14.4396 58.9 13.9996 60.38 16.3196 61.14C18.6796 61.9 22.9196 61.7 25.7996 60.66L33.6396 57.82V66.06C33.1596 66.14 32.5996 66.22 32.0796 66.34C24.2796 67.58 15.9196 67.06 7.67956 64.34ZM91.7196 67.98C92.7196 67.98 93.6396 68.38 94.3596 69.06C95.0796 69.74 95.4396 70.7 95.4396 71.66C95.4396 72.66 95.0396 73.58 94.3596 74.26C93.6396 74.98 92.7196 75.34 91.7196 75.34C90.7196 75.34 89.7996 74.94 89.0796 74.26C88.3596 73.58 87.9996 72.62 87.9996 71.66C87.9996 69.66 89.6796 67.98 91.7196 67.98ZM88.6396 71.7C88.6396 72.54 88.9596 73.3 89.5596 73.86C90.1596 74.46 90.9196 74.78 91.7196 74.78C93.4396 74.78 94.7996 73.38 94.7996 71.7C94.7996 70.86 94.4796 70.1 93.8796 69.5C93.2796 68.9 92.5196 68.58 91.7196 68.58C90.9196 68.58 90.1196 68.9 89.5596 69.5C88.9596 70.1 88.6396 70.86 88.6396 71.7ZM92.8396 69.7C93.2396 69.86 93.4396 70.22 93.4396 70.7C93.4396 70.94 93.3996 71.18 93.2796 71.34C93.1996 71.46 93.0796 71.54 92.9596 71.66C93.0396 71.7 93.1596 71.78 93.1996 71.86C93.2796 71.98 93.3196 72.14 93.3596 72.42V72.94C93.3596 73.1 93.3596 73.18 93.3996 73.26C93.4396 73.34 93.4796 73.42 93.5196 73.42L93.5596 73.46V73.5V73.58V73.66H93.4796H92.8396H92.7996L92.7596 73.62C92.7196 73.58 92.7196 73.54 92.7196 73.46C92.7196 73.42 92.6796 73.3 92.6796 73.14L92.6396 72.5C92.6396 72.26 92.5596 72.14 92.3996 72.06C92.3196 72.02 92.1596 71.98 91.9596 71.98H90.8396V73.58V73.66H90.7596H90.2396H90.1596V73.62V69.66V69.58H90.2396H92.0796C92.3596 69.58 92.6396 69.62 92.8396 69.7ZM90.8396 71.38H91.9996C92.2396 71.38 92.3996 71.34 92.5596 71.26C92.6796 71.18 92.7196 71.02 92.7196 70.78C92.7196 70.54 92.6396 70.38 92.4796 70.3C92.3996 70.26 92.2396 70.22 92.0796 70.22H90.8796L90.8396 71.38Z" fill="white"/>
</svg>
