<svg width="280" height="200" viewBox="0 0 280 200" fill="none" xmlns="http://www.w3.org/2000/svg">
<path d="M27.7157 162.5H76.3782L83.4157 151.069L59.3751 115.009L27.7157 162.5Z" fill="#141515"/>
<path d="M83.7188 162.5H172.531L128.125 90.3375L83.7188 162.5Z" fill="#141515"/>
<path d="M12.5 31.25H187.5V15.625C187.5 14.7962 187.171 14.0013 186.585 13.4153C185.999 12.8292 185.204 12.5 184.375 12.5H15.625C14.7962 12.5 14.0013 12.8292 13.4153 13.4153C12.8292 14.0013 12.5 14.7962 12.5 15.625V31.25ZM53.125 18.75H56.25C57.0788 18.75 57.8737 19.0792 58.4597 19.6653C59.0458 20.2513 59.375 21.0462 59.375 21.875C59.375 22.7038 59.0458 23.4987 58.4597 24.0847C57.8737 24.6708 57.0788 25 56.25 25H53.125C52.2962 25 51.5013 24.6708 50.9153 24.0847C50.3292 23.4987 50 22.7038 50 21.875C50 21.0462 50.3292 20.2513 50.9153 19.6653C51.5013 19.0792 52.2962 18.75 53.125 18.75ZM37.5 18.75H40.625C41.4538 18.75 42.2487 19.0792 42.8347 19.6653C43.4208 20.2513 43.75 21.0462 43.75 21.875C43.75 22.7038 43.4208 23.4987 42.8347 24.0847C42.2487 24.6708 41.4538 25 40.625 25H37.5C36.6712 25 35.8763 24.6708 35.2903 24.0847C34.7042 23.4987 34.375 22.7038 34.375 21.875C34.375 21.0462 34.7042 20.2513 35.2903 19.6653C35.8763 19.0792 36.6712 18.75 37.5 18.75ZM21.875 18.75H25C25.8288 18.75 26.6237 19.0792 27.2097 19.6653C27.7958 20.2513 28.125 21.0462 28.125 21.875C28.125 22.7038 27.7958 23.4987 27.2097 24.0847C26.6237 24.6708 25.8288 25 25 25H21.875C21.0462 25 20.2513 24.6708 19.6653 24.0847C19.0792 23.4987 18.75 22.7038 18.75 21.875C18.75 21.0462 19.0792 20.2513 19.6653 19.6653C20.2513 19.0792 21.0462 18.75 21.875 18.75Z" fill="#141515"/>
<path d="M87.5 100C92.6777 100 96.875 95.8027 96.875 90.625C96.875 85.4473 92.6777 81.25 87.5 81.25C82.3223 81.25 78.125 85.4473 78.125 90.625C78.125 95.8027 82.3223 100 87.5 100Z" fill="#141515"/>
<path d="M15.625 187.5H184.375C185.204 187.5 185.999 187.171 186.585 186.585C187.171 185.999 187.5 185.204 187.5 184.375V37.5H12.5V184.375C12.5 185.204 12.8292 185.999 13.4153 186.585C14.0013 187.171 14.7962 187.5 15.625 187.5ZM18.75 59.375C18.75 58.5462 19.0792 57.7513 19.6653 57.1653C20.2513 56.5792 21.0462 56.25 21.875 56.25H178.125C178.954 56.25 179.749 56.5792 180.335 57.1653C180.921 57.7513 181.25 58.5462 181.25 59.375V165.625C181.25 166.454 180.921 167.249 180.335 167.835C179.749 168.421 178.954 168.75 178.125 168.75H21.875C21.0462 168.75 20.2513 168.421 19.6653 167.835C19.0792 167.249 18.75 166.454 18.75 165.625V59.375Z" fill="#141515"/>
<path d="M61.975 107.641L87.0188 145.209L125.456 82.7375C125.756 82.3113 126.154 81.9635 126.616 81.7233C127.078 81.4832 127.592 81.3578 128.112 81.3578C128.633 81.3578 129.147 81.4832 129.609 81.7233C130.071 81.9635 130.469 82.3113 130.769 82.7375L175 154.584V62.5H25V155.312L56.775 107.641C57.0773 107.236 57.4698 106.908 57.9211 106.682C58.3724 106.456 58.8702 106.339 59.375 106.339C59.8798 106.339 60.3776 106.456 60.8289 106.682C61.2802 106.908 61.6727 107.236 61.975 107.641ZM87.5 75C90.5903 75 93.6113 75.9164 96.1808 77.6333C98.7503 79.3502 100.753 81.7905 101.936 84.6456C103.118 87.5007 103.428 90.6423 102.825 93.6733C102.222 96.7042 100.734 99.4883 98.5485 101.674C96.3633 103.859 93.5792 105.347 90.5483 105.95C87.5173 106.553 84.3757 106.243 81.5206 105.061C78.6655 103.878 76.2252 101.875 74.5083 99.3058C72.7914 96.7363 71.875 93.7153 71.875 90.625C71.88 86.4825 73.5278 82.5111 76.4569 79.5819C79.3861 76.6528 83.3575 75.005 87.5 75Z" fill="#141515"/>
<path d="M190 149.764C189.691 149.765 189.388 149.683 189.121 149.529L153.859 129.173C153.592 129.018 153.37 128.796 153.216 128.529C153.062 128.262 152.98 127.959 152.98 127.65V86.9394C152.98 86.6309 153.062 86.3278 153.216 86.0606C153.37 85.7933 153.592 85.5715 153.859 85.4172L189.121 65.0589C189.388 64.9041 189.691 64.8226 190 64.8226C190.309 64.8226 190.612 64.9041 190.879 65.0589L226.141 85.4151C226.408 85.5693 226.63 85.7912 226.784 86.0585C226.938 86.3257 227.02 86.6288 227.02 86.9373V127.648C227.02 127.957 226.938 128.26 226.784 128.527C226.63 128.794 226.408 129.016 226.141 129.171L190.879 149.529C190.612 149.683 190.309 149.765 190 149.764ZM156.499 126.636L190 145.977L223.501 126.636V87.9519L190 68.6104L156.499 87.9519V126.636Z" fill="white"/>
<path d="M190 166.128C189.691 166.129 189.388 166.047 189.121 165.893L139.691 137.354C139.424 137.2 139.202 136.978 139.048 136.711C138.894 136.444 138.813 136.141 138.812 135.832V78.7558C138.813 78.4473 138.894 78.1441 139.048 77.8769C139.202 77.6097 139.424 77.3878 139.691 77.2335L189.121 48.6951C189.388 48.5408 189.691 48.4596 190 48.4596C190.309 48.4596 190.612 48.5408 190.879 48.6951L240.309 77.2335C240.576 77.3878 240.798 77.6097 240.952 77.8769C241.106 78.1441 241.188 78.4473 241.188 78.7558V135.832C241.188 136.141 241.106 136.444 240.952 136.711C240.798 136.978 240.576 137.2 240.309 137.354L190.879 165.893C190.612 166.047 190.309 166.129 190 166.128ZM142.328 134.817L190 162.34L237.672 134.817V79.7704L190 52.2473L142.328 79.7704V134.817Z" fill="#FFBED2"/>
<path d="M259.231 146.677L256.12 132.465C256.02 132.009 255.744 131.612 255.351 131.36C254.959 131.109 254.482 131.023 254.027 131.123C253.571 131.222 253.174 131.499 252.923 131.891C252.671 132.284 252.585 132.76 252.685 133.216L254.887 143.27L191.758 102.864V33.5793L199.044 40.8672C199.376 41.1874 199.82 41.3646 200.281 41.3606C200.742 41.3566 201.183 41.1717 201.508 40.8458C201.834 40.5199 202.019 40.079 202.023 39.6181C202.027 39.1572 201.85 38.7132 201.53 38.3817L191.243 28.0942C191.08 27.931 190.886 27.8014 190.673 27.7131C190.46 27.6247 190.231 27.5792 190 27.5792C189.769 27.5792 189.541 27.6247 189.327 27.7131C189.114 27.8014 188.92 27.931 188.757 28.0942L178.469 38.3803C178.149 38.7118 177.971 39.1558 177.975 39.6167C177.979 40.0776 178.164 40.5185 178.49 40.8444C178.816 41.1703 179.257 41.3552 179.718 41.3592C180.179 41.3632 180.623 41.186 180.954 40.8658L188.242 33.5793V102.864L125.114 143.27L127.315 133.216C127.415 132.76 127.329 132.284 127.078 131.891C126.826 131.499 126.429 131.222 125.973 131.123C125.518 131.023 125.041 131.109 124.649 131.36C124.256 131.612 123.98 132.009 123.88 132.465L120.769 146.677C120.669 147.132 120.755 147.609 121.006 148.001C121.258 148.393 121.655 148.67 122.11 148.769L136.323 151.88C136.447 151.907 136.573 151.921 136.7 151.922C137.134 151.923 137.554 151.763 137.877 151.473C138.201 151.183 138.406 150.784 138.452 150.352C138.499 149.92 138.384 149.486 138.129 149.134C137.875 148.782 137.499 148.537 137.074 148.445L126.995 146.24L190 105.913L253.005 146.24L242.926 148.445C242.501 148.537 242.125 148.782 241.871 149.134C241.616 149.486 241.501 149.92 241.548 150.352C241.594 150.784 241.799 151.183 242.123 151.473C242.447 151.763 242.866 151.923 243.3 151.922C243.427 151.921 243.553 151.907 243.677 151.88L257.89 148.769C258.345 148.67 258.742 148.393 258.994 148.001C259.245 147.609 259.331 147.132 259.231 146.677Z" fill="#D3708E"/>
</svg>
