<svg width="280" height="200" viewBox="0 0 280 200" fill="none" xmlns="http://www.w3.org/2000/svg">
<path d="M95.625 187.5H264.375C265.204 187.5 265.999 187.171 266.585 186.585C267.171 185.999 267.5 185.204 267.5 184.375V37.5H92.5V184.375C92.5 185.204 92.8292 185.999 93.4153 186.585C94.0013 187.171 94.7962 187.5 95.625 187.5ZM198.75 153.125C198.75 155.611 197.762 157.996 196.004 159.754C194.246 161.512 191.861 162.5 189.375 162.5H170.625C168.139 162.5 165.754 161.512 163.996 159.754C162.238 157.996 161.25 155.611 161.25 153.125V146.875C161.25 144.389 162.238 142.004 163.996 140.246C165.754 138.488 168.139 137.5 170.625 137.5H189.375C191.861 137.5 194.246 138.488 196.004 140.246C197.762 142.004 198.75 144.389 198.75 146.875V153.125ZM248.75 153.125C248.75 155.611 247.762 157.996 246.004 159.754C244.246 161.512 241.861 162.5 239.375 162.5H220.625C218.139 162.5 215.754 161.512 213.996 159.754C212.238 157.996 211.25 155.611 211.25 153.125V146.875C211.25 144.389 212.238 142.004 213.996 140.246C215.754 138.488 218.139 137.5 220.625 137.5H239.375C241.861 137.5 244.246 138.488 246.004 140.246C247.762 142.004 248.75 144.389 248.75 146.875V153.125ZM111.25 65.625C111.25 64.7962 111.579 64.0013 112.165 63.4153C112.751 62.8292 113.546 62.5 114.375 62.5H245.625C246.454 62.5 247.249 62.8292 247.835 63.4153C248.421 64.0013 248.75 64.7962 248.75 65.625V109.375C248.75 110.204 248.421 110.999 247.835 111.585C247.249 112.171 246.454 112.5 245.625 112.5H114.375C113.546 112.5 112.751 112.171 112.165 111.585C111.579 110.999 111.25 110.204 111.25 109.375V65.625ZM111.25 146.875C111.25 144.389 112.238 142.004 113.996 140.246C115.754 138.488 118.139 137.5 120.625 137.5H139.375C141.861 137.5 144.246 138.488 146.004 140.246C147.762 142.004 148.75 144.389 148.75 146.875V153.125C148.75 155.611 147.762 157.996 146.004 159.754C144.246 161.512 141.861 162.5 139.375 162.5H120.625C118.139 162.5 115.754 161.512 113.996 159.754C112.238 157.996 111.25 155.611 111.25 153.125V146.875Z" fill="#141515"/>
<path d="M92.5 31.25H267.5V15.625C267.5 14.7962 267.171 14.0013 266.585 13.4153C265.999 12.8292 265.204 12.5 264.375 12.5H95.625C94.7962 12.5 94.0013 12.8292 93.4153 13.4153C92.8292 14.0013 92.5 14.7962 92.5 15.625V31.25ZM133.125 18.75H136.25C137.079 18.75 137.874 19.0792 138.46 19.6653C139.046 20.2513 139.375 21.0462 139.375 21.875C139.375 22.7038 139.046 23.4987 138.46 24.0847C137.874 24.6708 137.079 25 136.25 25H133.125C132.296 25 131.501 24.6708 130.915 24.0847C130.329 23.4987 130 22.7038 130 21.875C130 21.0462 130.329 20.2513 130.915 19.6653C131.501 19.0792 132.296 18.75 133.125 18.75ZM117.5 18.75H120.625C121.454 18.75 122.249 19.0792 122.835 19.6653C123.421 20.2513 123.75 21.0462 123.75 21.875C123.75 22.7038 123.421 23.4987 122.835 24.0847C122.249 24.6708 121.454 25 120.625 25H117.5C116.671 25 115.876 24.6708 115.29 24.0847C114.704 23.4987 114.375 22.7038 114.375 21.875C114.375 21.0462 114.704 20.2513 115.29 19.6653C115.876 19.0792 116.671 18.75 117.5 18.75ZM101.875 18.75H105C105.829 18.75 106.624 19.0792 107.21 19.6653C107.796 20.2513 108.125 21.0462 108.125 21.875C108.125 22.7038 107.796 23.4987 107.21 24.0847C106.624 24.6708 105.829 25 105 25H101.875C101.046 25 100.251 24.6708 99.6653 24.0847C99.0792 23.4987 98.75 22.7038 98.75 21.875C98.75 21.0462 99.0792 20.2513 99.6653 19.6653C100.251 19.0792 101.046 18.75 101.875 18.75Z" fill="#141515"/>
<path d="M239.375 143.75H220.625C218.899 143.75 217.5 145.149 217.5 146.875V153.125C217.5 154.851 218.899 156.25 220.625 156.25H239.375C241.101 156.25 242.5 154.851 242.5 153.125V146.875C242.5 145.149 241.101 143.75 239.375 143.75Z" fill="#141515"/>
<path d="M242.5 68.75H117.5V106.25H242.5V68.75ZM141.25 94.375C141.578 94.6212 141.855 94.9297 142.064 95.2828C142.273 95.636 142.411 96.0268 142.469 96.4331C142.527 96.8393 142.504 97.253 142.402 97.6506C142.3 98.0481 142.121 98.4217 141.875 98.75C141.629 99.0783 141.32 99.3549 140.967 99.564C140.614 99.7731 140.223 99.9106 139.817 99.9686C139.411 100.027 138.997 100.004 138.599 99.9022C138.202 99.8004 137.828 99.6212 137.5 99.375L125 90C124.612 89.7089 124.297 89.3315 124.08 88.8975C123.863 88.4636 123.75 87.9851 123.75 87.5C123.75 87.0149 123.863 86.5364 124.08 86.1025C124.297 85.6685 124.612 85.2911 125 85L137.5 75.625C137.828 75.3788 138.202 75.1996 138.599 75.0978C138.997 74.9959 139.411 74.9734 139.817 75.0314C140.223 75.0894 140.614 75.2269 140.967 75.436C141.32 75.6451 141.629 75.9217 141.875 76.25C142.121 76.5783 142.3 76.9519 142.402 77.3494C142.504 77.747 142.527 78.1607 142.469 78.5669C142.411 78.9732 142.273 79.364 142.064 79.7172C141.855 80.0703 141.578 80.3788 141.25 80.625L132.084 87.5L141.25 94.375ZM235 90L222.5 99.375C221.837 99.8723 221.004 100.086 220.183 99.9686C219.363 99.8514 218.622 99.413 218.125 98.75C217.628 98.087 217.414 97.2535 217.531 96.4331C217.649 95.6126 218.087 94.8723 218.75 94.375L227.916 87.5L218.75 80.625C218.087 80.1277 217.649 79.3874 217.531 78.5669C217.414 77.7465 217.628 76.913 218.125 76.25C218.622 75.587 219.363 75.1486 220.183 75.0314C221.004 74.9142 221.837 75.1277 222.5 75.625L235 85C235.388 85.2911 235.703 85.6685 235.92 86.1025C236.137 86.5364 236.25 87.0149 236.25 87.5C236.25 87.9851 236.137 88.4636 235.92 88.8975C235.703 89.3315 235.388 89.7089 235 90Z" fill="#141515"/>
<path d="M189.375 143.75H170.625C168.899 143.75 167.5 145.149 167.5 146.875V153.125C167.5 154.851 168.899 156.25 170.625 156.25H189.375C191.101 156.25 192.5 154.851 192.5 153.125V146.875C192.5 145.149 191.101 143.75 189.375 143.75Z" fill="#141515"/>
<path d="M139.375 143.75H120.625C118.899 143.75 117.5 145.149 117.5 146.875V153.125C117.5 154.851 118.899 156.25 120.625 156.25H139.375C141.101 156.25 142.5 154.851 142.5 153.125V146.875C142.5 145.149 141.101 143.75 139.375 143.75Z" fill="#141515"/>
<path d="M71.0498 70.3421H61.5C61.0338 70.3421 60.5867 70.1569 60.257 69.8273C59.9274 69.4976 59.7422 69.0505 59.7422 68.5843V51.7578C59.7422 51.2916 59.9274 50.8445 60.257 50.5149C60.5867 50.1852 61.0338 50 61.5 50H71.0498C71.516 50 71.9632 50.1852 72.2928 50.5149C72.6225 50.8445 72.8077 51.2916 72.8077 51.7578V68.5843C72.8077 69.0505 72.6225 69.4976 72.2928 69.8273C71.9632 70.1569 71.516 70.3421 71.0498 70.3421ZM63.2578 66.8265H69.292V53.5156H63.2578V66.8265Z" fill="#D3708E"/>
<path d="M98.7929 70.3421H89.2402C88.774 70.3421 88.3269 70.1569 87.9973 69.8273C87.6676 69.4976 87.4824 69.0505 87.4824 68.5843V51.7578C87.4824 51.2916 87.6676 50.8445 87.9973 50.5149C88.3269 50.1852 88.774 50 89.2402 50H98.7929C99.2591 50 99.7062 50.1852 100.036 50.5149C100.366 50.8445 100.551 51.2916 100.551 51.7578V68.5843C100.551 69.0505 100.366 69.4976 100.036 69.8273C99.7062 70.1569 99.2591 70.3421 98.7929 70.3421ZM91.0002 66.8265H97.0351V53.5156H91.0002V66.8265Z" fill="#FFBED2"/>
<path d="M117.436 70.3421H107.886C107.42 70.3421 106.972 70.1569 106.643 69.8273C106.313 69.4976 106.128 69.0505 106.128 68.5843V51.7578C106.128 51.2916 106.313 50.8445 106.643 50.5149C106.972 50.1852 107.42 50 107.886 50H117.436C117.902 50 118.349 50.1852 118.679 50.5149C119.008 50.8445 119.193 51.2916 119.193 51.7578V68.5843C119.193 69.0505 119.008 69.4976 118.679 69.8273C118.349 70.1569 117.902 70.3421 117.436 70.3421ZM109.644 66.8265H115.678V53.5156H109.644V66.8265Z" fill="#D3708E"/>
<path d="M80.1448 70.3421C79.6786 70.3421 79.2315 70.1569 78.9018 69.8273C78.5722 69.4976 78.387 69.0505 78.387 68.5843V51.7578C78.387 51.2916 78.5722 50.8445 78.9018 50.5149C79.2315 50.1852 79.6786 50 80.1448 50C80.611 50 81.0581 50.1852 81.3877 50.5149C81.7174 50.8445 81.9026 51.2916 81.9026 51.7578V68.5843C81.9026 69.0505 81.7174 69.4976 81.3877 69.8273C81.0581 70.1569 80.611 70.3421 80.1448 70.3421Z" fill="#FFBED2"/>
<path d="M53.7578 70.3421C53.2916 70.3421 52.8445 70.1569 52.5149 69.8273C52.1852 69.4976 52 69.0505 52 68.5843V51.7578C52 51.2916 52.1852 50.8445 52.5149 50.5149C52.8445 50.1852 53.2916 50 53.7578 50C54.224 50 54.6711 50.1852 55.0008 50.5149C55.3304 50.8445 55.5156 51.2916 55.5156 51.7578V68.5843C55.5156 69.0505 55.3304 69.4976 55.0008 69.8273C54.6711 70.1569 54.224 70.3421 53.7578 70.3421Z" fill="#FFBED2"/>
<path d="M46.0498 70.3421H36.5C36.0338 70.3421 35.5867 70.1569 35.257 69.8273C34.9274 69.4976 34.7422 69.0505 34.7422 68.5843V51.7578C34.7422 51.2916 34.9274 50.8445 35.257 50.5149C35.5867 50.1852 36.0338 50 36.5 50H46.0498C46.516 50 46.9632 50.1852 47.2928 50.5149C47.6225 50.8445 47.8077 51.2916 47.8077 51.7578V68.5843C47.8077 69.0505 47.6225 69.4976 47.2928 69.8273C46.9632 70.1569 46.516 70.3421 46.0498 70.3421ZM38.2578 66.8265H44.292V53.5156H38.2578V66.8265Z" fill="#FFBED2"/>
<path d="M28.7578 70.3421C28.2916 70.3421 27.8445 70.1569 27.5149 69.8273C27.1852 69.4976 27 69.0505 27 68.5843V51.7578C27 51.2916 27.1852 50.8445 27.5149 50.5149C27.8445 50.1852 28.2916 50 28.7578 50C29.224 50 29.6711 50.1852 30.0008 50.5149C30.3304 50.8445 30.5156 51.2916 30.5156 51.7578V68.5843C30.5156 69.0505 30.3304 69.4976 30.0008 69.8273C29.6711 70.1569 29.224 70.3421 28.7578 70.3421Z" fill="#D3708E"/>
<path d="M46.1944 96.6928H36.6445C36.1783 96.6928 35.7312 96.5076 35.4016 96.178C35.0719 95.8483 34.8867 95.4012 34.8867 94.935V78.1085C34.8867 77.6423 35.0719 77.1952 35.4016 76.8656C35.7312 76.5359 36.1783 76.3507 36.6445 76.3507H46.1944C46.6606 76.3507 47.1077 76.5359 47.4373 76.8656C47.767 77.1952 47.9522 77.6423 47.9522 78.1085V94.935C47.9522 95.4012 47.767 95.8483 47.4373 96.178C47.1077 96.5076 46.6606 96.6928 46.1944 96.6928ZM38.4023 93.1772H44.4366V79.8663H38.4023V93.1772Z" fill="#FFBED2"/>
<path d="M28.9023 96.6928C28.4361 96.6928 27.989 96.5076 27.6594 96.178C27.3297 95.8483 27.1445 95.4012 27.1445 94.935V78.1085C27.1445 77.6423 27.3297 77.1952 27.6594 76.8656C27.989 76.5359 28.4361 76.3507 28.9023 76.3507C29.3685 76.3507 29.8157 76.5359 30.1453 76.8656C30.475 77.1952 30.6602 77.6423 30.6602 78.1085V94.935C30.6602 95.4012 30.475 95.8483 30.1453 96.178C29.8157 96.5076 29.3685 96.6928 28.9023 96.6928Z" fill="#FFBED2"/>
<path d="M126.531 70.3421C126.065 70.3421 125.618 70.1569 125.288 69.8273C124.959 69.4976 124.773 69.0505 124.773 68.5843V51.7578C124.773 51.2916 124.959 50.8445 125.288 50.5149C125.618 50.1852 126.065 50 126.531 50C126.997 50 127.445 50.1852 127.774 50.5149C128.104 50.8445 128.289 51.2916 128.289 51.7578V68.5843C128.289 69.0505 128.104 69.4976 127.774 69.8273C127.445 70.1569 126.997 70.3421 126.531 70.3421Z" fill="#FFBED2"/>
<path d="M118.789 96.8577H109.239C108.773 96.8577 108.326 96.6725 107.996 96.3428C107.667 96.0132 107.481 95.5661 107.481 95.0999V78.2734C107.481 77.8072 107.667 77.3601 107.996 77.0304C108.326 76.7008 108.773 76.5156 109.239 76.5156H118.789C119.255 76.5156 119.702 76.7008 120.032 77.0304C120.362 77.3601 120.547 77.8072 120.547 78.2734V95.0999C120.547 95.5661 120.362 96.0132 120.032 96.3428C119.702 96.6725 119.255 96.8577 118.789 96.8577ZM110.997 93.342H117.031V80.0312H110.997V93.342Z" fill="#FFBED2"/>
<path d="M91.0487 96.8577H81.4961C81.0299 96.8577 80.5828 96.6725 80.2531 96.3428C79.9235 96.0132 79.7383 95.5661 79.7383 95.0999V78.2734C79.7383 77.8072 79.9235 77.3601 80.2531 77.0304C80.5828 76.7008 81.0299 76.5156 81.4961 76.5156H91.0466C91.5128 76.5156 91.9599 76.7008 92.2896 77.0304C92.6193 77.3601 92.8045 77.8072 92.8045 78.2734V95.0999C92.8045 95.5657 92.6196 96.0125 92.2904 96.3421C91.9612 96.6717 91.5146 96.8571 91.0487 96.8577ZM83.256 93.342H89.2909V80.0312H83.2539L83.256 93.342Z" fill="#FFBED2"/>
<path d="M72.4031 96.8577H62.8533C62.3871 96.8577 61.94 96.6725 61.6103 96.3428C61.2807 96.0132 61.0955 95.5661 61.0955 95.0999V78.2734C61.0955 77.8072 61.2807 77.3601 61.6103 77.0304C61.94 76.7008 62.3871 76.5156 62.8533 76.5156H72.4031C72.8693 76.5156 73.3164 76.7008 73.6461 77.0304C73.9757 77.3601 74.1609 77.8072 74.1609 78.2734V95.0999C74.1609 95.5661 73.9757 96.0132 73.6461 96.3428C73.3164 96.6725 72.8693 96.8577 72.4031 96.8577ZM64.6111 93.342H70.6453V80.0312H64.6111V93.342Z" fill="#FFBED2"/>
<path d="M100.144 96.8577C99.6781 96.8577 99.231 96.6725 98.9013 96.3428C98.5717 96.0132 98.3865 95.5661 98.3865 95.0999V78.2734C98.3865 77.8072 98.5717 77.3601 98.9013 77.0304C99.231 76.7008 99.6781 76.5156 100.144 76.5156C100.61 76.5156 101.058 76.7008 101.387 77.0304C101.717 77.3601 101.902 77.8072 101.902 78.2734V95.0999C101.902 95.5661 101.717 96.0132 101.387 96.3428C101.058 96.6725 100.61 96.8577 100.144 96.8577Z" fill="#D3708E"/>
<path d="M126.531 96.8577C126.065 96.8577 125.618 96.6725 125.288 96.3428C124.959 96.0132 124.773 95.5661 124.773 95.0999V78.2734C124.773 77.8072 124.959 77.3601 125.288 77.0304C125.618 76.7008 126.065 76.5156 126.531 76.5156C126.997 76.5156 127.445 76.7008 127.774 77.0304C128.104 77.3601 128.289 77.8072 128.289 78.2734V95.0999C128.289 95.5661 128.104 96.0132 127.774 96.3428C127.445 96.6725 126.997 96.8577 126.531 96.8577Z" fill="#FFBED2"/>
<path d="M144.452 96.6928H134.902C134.436 96.6928 133.989 96.5076 133.659 96.178C133.33 95.8483 133.145 95.4012 133.145 94.935V78.1085C133.145 77.6423 133.33 77.1952 133.659 76.8656C133.989 76.5359 134.436 76.3507 134.902 76.3507H144.452C144.918 76.3507 145.365 76.5359 145.695 76.8656C146.025 77.1952 146.21 77.6423 146.21 78.1085V94.935C146.21 95.4012 146.025 95.8483 145.695 96.178C145.365 96.5076 144.918 96.6928 144.452 96.6928ZM136.66 93.1772H142.694V79.8663H136.66V93.1772Z" fill="#D3708E"/>
<path d="M152.194 96.6928C151.728 96.6928 151.281 96.5076 150.951 96.178C150.622 95.8483 150.437 95.4012 150.437 94.935V78.1085C150.437 77.6423 150.622 77.1952 150.951 76.8656C151.281 76.5359 151.728 76.3507 152.194 76.3507C152.661 76.3507 153.108 76.5359 153.437 76.8656C153.767 77.1952 153.952 77.6423 153.952 78.1085V94.935C153.952 95.4012 153.767 95.8483 153.437 96.178C153.108 96.5076 152.661 96.6928 152.194 96.6928Z" fill="#FFBED2"/>
<path d="M144.452 70.6928H134.902C134.436 70.6928 133.989 70.5076 133.659 70.178C133.33 69.8483 133.145 69.4012 133.145 68.935V52.1085C133.145 51.6423 133.33 51.1952 133.659 50.8656C133.989 50.5359 134.436 50.3507 134.902 50.3507H144.452C144.918 50.3507 145.365 50.5359 145.695 50.8656C146.025 51.1952 146.21 51.6423 146.21 52.1085V68.935C146.21 69.4012 146.025 69.8483 145.695 70.178C145.365 70.5076 144.918 70.6928 144.452 70.6928ZM136.66 67.1772H142.694V53.8663H136.66V67.1772Z" fill="#FFBED2"/>
<path d="M152.194 70.6928C151.728 70.6928 151.281 70.5076 150.951 70.178C150.622 69.8483 150.437 69.4012 150.437 68.935V52.1085C150.437 51.6423 150.622 51.1952 150.951 50.8656C151.281 50.5359 151.728 50.3507 152.194 50.3507C152.661 50.3507 153.108 50.5359 153.437 50.8656C153.767 51.1952 153.952 51.6423 153.952 52.1085V68.935C153.952 69.4012 153.767 69.8483 153.437 70.178C153.108 70.5076 152.661 70.6928 152.194 70.6928Z" fill="#D3708E"/>
<path d="M53.7578 96.8577C53.2916 96.8577 52.8445 96.6725 52.5149 96.3428C52.1852 96.0132 52 95.5661 52 95.0999V78.2734C52 77.8072 52.1852 77.3601 52.5149 77.0304C52.8445 76.7008 53.2916 76.5156 53.7578 76.5156C54.224 76.5156 54.6711 76.7008 55.0008 77.0304C55.3304 77.3601 55.5156 77.8072 55.5156 78.2734V95.0999C55.5156 95.5661 55.3304 96.0132 55.0008 96.3428C54.6711 96.6725 54.224 96.8577 53.7578 96.8577Z" fill="#D3708E"/>
<path d="M71.0498 123.342H61.5C61.0338 123.342 60.5867 123.157 60.257 122.827C59.9274 122.498 59.7422 122.05 59.7422 121.584V104.758C59.7422 104.292 59.9274 103.845 60.257 103.515C60.5867 103.185 61.0338 103 61.5 103H71.0498C71.516 103 71.9632 103.185 72.2928 103.515C72.6225 103.845 72.8077 104.292 72.8077 104.758V121.584C72.8077 122.05 72.6225 122.498 72.2928 122.827C71.9632 123.157 71.516 123.342 71.0498 123.342ZM63.2578 119.826H69.292V106.516H63.2578V119.826Z" fill="#FFBED2"/>
<path d="M98.7929 123.342H89.2402C88.774 123.342 88.3269 123.157 87.9973 122.827C87.6676 122.498 87.4824 122.05 87.4824 121.584V104.758C87.4824 104.292 87.6676 103.845 87.9973 103.515C88.3269 103.185 88.774 103 89.2402 103H98.7929C99.2591 103 99.7062 103.185 100.036 103.515C100.366 103.845 100.551 104.292 100.551 104.758V121.584C100.551 122.05 100.366 122.498 100.036 122.827C99.7062 123.157 99.2591 123.342 98.7929 123.342ZM91.0002 119.826H97.0351V106.516H91.0002V119.826Z" fill="#FFBED2"/>
<path d="M117.436 123.342H107.886C107.42 123.342 106.972 123.157 106.643 122.827C106.313 122.498 106.128 122.05 106.128 121.584V104.758C106.128 104.292 106.313 103.845 106.643 103.515C106.972 103.185 107.42 103 107.886 103H117.436C117.902 103 118.349 103.185 118.679 103.515C119.008 103.845 119.193 104.292 119.193 104.758V121.584C119.193 122.05 119.008 122.498 118.679 122.827C118.349 123.157 117.902 123.342 117.436 123.342ZM109.644 119.826H115.678V106.516H109.644V119.826Z" fill="#D3708E"/>
<path d="M80.1448 123.342C79.6786 123.342 79.2315 123.157 78.9018 122.827C78.5722 122.498 78.387 122.05 78.387 121.584V104.758C78.387 104.292 78.5722 103.845 78.9018 103.515C79.2315 103.185 79.6786 103 80.1448 103C80.611 103 81.0581 103.185 81.3877 103.515C81.7174 103.845 81.9026 104.292 81.9026 104.758V121.584C81.9026 122.05 81.7174 122.498 81.3877 122.827C81.0581 123.157 80.611 123.342 80.1448 123.342Z" fill="#FFBED2"/>
<path d="M53.7578 123.342C53.2916 123.342 52.8445 123.157 52.5149 122.827C52.1852 122.498 52 122.05 52 121.584V104.758C52 104.292 52.1852 103.845 52.5149 103.515C52.8445 103.185 53.2916 103 53.7578 103C54.224 103 54.6711 103.185 55.0008 103.515C55.3304 103.845 55.5156 104.292 55.5156 104.758V121.584C55.5156 122.05 55.3304 122.498 55.0008 122.827C54.6711 123.157 54.224 123.342 53.7578 123.342Z" fill="#FFBED2"/>
<path d="M46.0498 123.342H36.5C36.0338 123.342 35.5867 123.157 35.257 122.827C34.9274 122.498 34.7422 122.05 34.7422 121.584V104.758C34.7422 104.292 34.9274 103.845 35.257 103.515C35.5867 103.185 36.0338 103 36.5 103H46.0498C46.516 103 46.9632 103.185 47.2928 103.515C47.6225 103.845 47.8077 104.292 47.8077 104.758V121.584C47.8077 122.05 47.6225 122.498 47.2928 122.827C46.9632 123.157 46.516 123.342 46.0498 123.342ZM38.2578 119.826H44.292V106.516H38.2578V119.826Z" fill="#D3708E"/>
<path d="M28.7578 123.342C28.2916 123.342 27.8445 123.157 27.5149 122.827C27.1852 122.498 27 122.05 27 121.584V104.758C27 104.292 27.1852 103.845 27.5149 103.515C27.8445 103.185 28.2916 103 28.7578 103C29.224 103 29.6711 103.185 30.0008 103.515C30.3304 103.845 30.5156 104.292 30.5156 104.758V121.584C30.5156 122.05 30.3304 122.498 30.0008 122.827C29.6711 123.157 29.224 123.342 28.7578 123.342Z" fill="#FFBED2"/>
<path d="M46.1944 149.693H36.6445C36.1783 149.693 35.7312 149.508 35.4016 149.178C35.0719 148.848 34.8867 148.401 34.8867 147.935V131.109C34.8867 130.642 35.0719 130.195 35.4016 129.866C35.7312 129.536 36.1783 129.351 36.6445 129.351H46.1944C46.6606 129.351 47.1077 129.536 47.4373 129.866C47.767 130.195 47.9522 130.642 47.9522 131.109V147.935C47.9522 148.401 47.767 148.848 47.4373 149.178C47.1077 149.508 46.6606 149.693 46.1944 149.693ZM38.4023 146.177H44.4366V132.866H38.4023V146.177Z" fill="#FFBED2"/>
<path d="M28.9023 149.693C28.4361 149.693 27.989 149.508 27.6594 149.178C27.3297 148.848 27.1445 148.401 27.1445 147.935V131.109C27.1445 130.642 27.3297 130.195 27.6594 129.866C27.989 129.536 28.4361 129.351 28.9023 129.351C29.3685 129.351 29.8157 129.536 30.1453 129.866C30.475 130.195 30.6602 130.642 30.6602 131.109V147.935C30.6602 148.401 30.475 148.848 30.1453 149.178C29.8157 149.508 29.3685 149.693 28.9023 149.693Z" fill="#D3708E"/>
<path d="M126.531 123.342C126.065 123.342 125.618 123.157 125.288 122.827C124.959 122.498 124.773 122.05 124.773 121.584V104.758C124.773 104.292 124.959 103.845 125.288 103.515C125.618 103.185 126.065 103 126.531 103C126.997 103 127.445 103.185 127.774 103.515C128.104 103.845 128.289 104.292 128.289 104.758V121.584C128.289 122.05 128.104 122.498 127.774 122.827C127.445 123.157 126.997 123.342 126.531 123.342Z" fill="#FFBED2"/>
<path d="M118.789 149.858H109.239C108.773 149.858 108.326 149.672 107.996 149.343C107.667 149.013 107.481 148.566 107.481 148.1V131.273C107.481 130.807 107.667 130.36 107.996 130.03C108.326 129.701 108.773 129.516 109.239 129.516H118.789C119.255 129.516 119.702 129.701 120.032 130.03C120.362 130.36 120.547 130.807 120.547 131.273V148.1C120.547 148.566 120.362 149.013 120.032 149.343C119.702 149.672 119.255 149.858 118.789 149.858ZM110.997 146.342H117.031V133.031H110.997V146.342Z" fill="#FFBED2"/>
<path d="M91.0487 149.858H81.4961C81.0299 149.858 80.5828 149.672 80.2531 149.343C79.9235 149.013 79.7383 148.566 79.7383 148.1V131.273C79.7383 130.807 79.9235 130.36 80.2531 130.03C80.5828 129.701 81.0299 129.516 81.4961 129.516H91.0466C91.5128 129.516 91.9599 129.701 92.2896 130.03C92.6193 130.36 92.8045 130.807 92.8045 131.273V148.1C92.8045 148.566 92.6196 149.012 92.2904 149.342C91.9612 149.672 91.5146 149.857 91.0487 149.858ZM83.256 146.342H89.2909V133.031H83.2539L83.256 146.342Z" fill="#D3708E"/>
<path d="M72.4031 149.858H62.8533C62.3871 149.858 61.94 149.672 61.6103 149.343C61.2807 149.013 61.0955 148.566 61.0955 148.1V131.273C61.0955 130.807 61.2807 130.36 61.6103 130.03C61.94 129.701 62.3871 129.516 62.8533 129.516H72.4031C72.8693 129.516 73.3164 129.701 73.6461 130.03C73.9757 130.36 74.1609 130.807 74.1609 131.273V148.1C74.1609 148.566 73.9757 149.013 73.6461 149.343C73.3164 149.672 72.8693 149.858 72.4031 149.858ZM64.6111 146.342H70.6453V133.031H64.6111V146.342Z" fill="#FFBED2"/>
<path d="M100.144 149.858C99.6781 149.858 99.231 149.672 98.9013 149.343C98.5717 149.013 98.3865 148.566 98.3865 148.1V131.273C98.3865 130.807 98.5717 130.36 98.9013 130.03C99.231 129.701 99.6781 129.516 100.144 129.516C100.61 129.516 101.058 129.701 101.387 130.03C101.717 130.36 101.902 130.807 101.902 131.273V148.1C101.902 148.566 101.717 149.013 101.387 149.343C101.058 149.672 100.61 149.858 100.144 149.858Z" fill="#FFBED2"/>
<path d="M126.531 149.858C126.065 149.858 125.618 149.672 125.288 149.343C124.959 149.013 124.773 148.566 124.773 148.1V131.273C124.773 130.807 124.959 130.36 125.288 130.03C125.618 129.701 126.065 129.516 126.531 129.516C126.997 129.516 127.445 129.701 127.774 130.03C128.104 130.36 128.289 130.807 128.289 131.273V148.1C128.289 148.566 128.104 149.013 127.774 149.343C127.445 149.672 126.997 149.858 126.531 149.858Z" fill="#FFBED2"/>
<path d="M144.452 149.693H134.902C134.436 149.693 133.989 149.508 133.659 149.178C133.33 148.848 133.145 148.401 133.145 147.935V131.109C133.145 130.642 133.33 130.195 133.659 129.866C133.989 129.536 134.436 129.351 134.902 129.351H144.452C144.918 129.351 145.365 129.536 145.695 129.866C146.025 130.195 146.21 130.642 146.21 131.109V147.935C146.21 148.401 146.025 148.848 145.695 149.178C145.365 149.508 144.918 149.693 144.452 149.693ZM136.66 146.177H142.694V132.866H136.66V146.177Z" fill="#D3708E"/>
<path d="M152.194 149.693C151.728 149.693 151.281 149.508 150.951 149.178C150.622 148.848 150.437 148.401 150.437 147.935V131.109C150.437 130.642 150.622 130.195 150.951 129.866C151.281 129.536 151.728 129.351 152.194 129.351C152.661 129.351 153.108 129.536 153.437 129.866C153.767 130.195 153.952 130.642 153.952 131.109V147.935C153.952 148.401 153.767 148.848 153.437 149.178C153.108 149.508 152.661 149.693 152.194 149.693Z" fill="#FFBED2"/>
<path d="M144.452 123.693H134.902C134.436 123.693 133.989 123.508 133.659 123.178C133.33 122.848 133.145 122.401 133.145 121.935V105.109C133.145 104.642 133.33 104.195 133.659 103.866C133.989 103.536 134.436 103.351 134.902 103.351H144.452C144.918 103.351 145.365 103.536 145.695 103.866C146.025 104.195 146.21 104.642 146.21 105.109V121.935C146.21 122.401 146.025 122.848 145.695 123.178C145.365 123.508 144.918 123.693 144.452 123.693ZM136.66 120.177H142.694V106.866H136.66V120.177Z" fill="#FFBED2"/>
<path d="M152.194 123.693C151.728 123.693 151.281 123.508 150.951 123.178C150.622 122.848 150.437 122.401 150.437 121.935V105.109C150.437 104.642 150.622 104.195 150.951 103.866C151.281 103.536 151.728 103.351 152.194 103.351C152.661 103.351 153.108 103.536 153.437 103.866C153.767 104.195 153.952 104.642 153.952 105.109V121.935C153.952 122.401 153.767 122.848 153.437 123.178C153.108 123.508 152.661 123.693 152.194 123.693Z" fill="#D3708E"/>
<path d="M53.7578 149.858C53.2916 149.858 52.8445 149.672 52.5149 149.343C52.1852 149.013 52 148.566 52 148.1V131.273C52 130.807 52.1852 130.36 52.5149 130.03C52.8445 129.701 53.2916 129.516 53.7578 129.516C54.224 129.516 54.6711 129.701 55.0008 130.03C55.3304 130.36 55.5156 130.807 55.5156 131.273V148.1C55.5156 148.566 55.3304 149.013 55.0008 149.343C54.6711 149.672 54.224 149.858 53.7578 149.858Z" fill="#FFBED2"/>
</svg>
