<svg width="280" height="200" viewBox="0 0 280 200" fill="none" xmlns="http://www.w3.org/2000/svg">
<path d="M265.531 81.4563C265.956 83.425 266.319 85.4469 266.609 87.4656C266.716 88.2095 267.087 88.89 267.655 89.3824C268.222 89.8748 268.948 90.1462 269.7 90.1469C269.851 90.1461 270.001 90.1346 270.15 90.1125C270.559 90.0558 270.952 89.9188 271.307 89.7094C271.663 89.4999 271.973 89.2222 272.221 88.8921C272.468 88.5621 272.648 88.1863 272.749 87.7865C272.851 87.3866 272.872 86.9707 272.812 86.5625C272.5 84.4 272.112 82.2344 271.656 80.1281C271.472 79.3275 270.981 78.6314 270.288 78.1905C269.594 77.7496 268.756 77.5994 267.952 77.7724C267.149 77.9453 266.447 78.4275 265.997 79.1146C265.546 79.8017 265.385 80.6384 265.547 81.4438L265.531 81.4563Z" fill="#141515"/>
<path d="M119.197 35.9375C119.972 35.9371 120.719 35.6486 121.294 35.1281C122.787 33.775 124.356 32.45 125.956 31.1938C126.281 30.9401 126.552 30.6251 126.755 30.2665C126.958 29.908 127.088 29.513 127.138 29.1042C127.189 28.6953 127.158 28.2805 127.048 27.8836C126.938 27.4866 126.75 27.1152 126.497 26.7906C126.243 26.466 125.928 26.1945 125.57 25.9917C125.211 25.7888 124.816 25.6586 124.407 25.6084C123.998 25.5582 123.584 25.589 123.187 25.6991C122.79 25.8092 122.418 25.9964 122.094 26.25C120.378 27.5969 118.697 29.0188 117.094 30.4688C116.626 30.8927 116.297 31.4483 116.152 32.0625C116.006 32.6767 116.049 33.3207 116.277 33.9097C116.504 34.4986 116.904 35.0049 117.425 35.3618C117.946 35.7188 118.562 35.9097 119.194 35.9094L119.197 35.9375Z" fill="#141515"/>
<path d="M90.6562 84.4125C90.868 84.4558 91.0837 84.4778 91.2999 84.4781C92.0193 84.4768 92.7161 84.2274 93.2729 83.772C93.8297 83.3165 94.2123 82.6829 94.3562 81.9781C94.7687 80.0063 95.2562 78.0125 95.8124 76.0406C95.9868 75.2585 95.8541 74.4392 95.4416 73.7521C95.0292 73.0651 94.3685 72.5627 93.5962 72.3489C92.8239 72.135 91.9989 72.226 91.2918 72.6031C90.5847 72.9802 90.0495 73.6145 89.7968 74.375C89.203 76.475 88.678 78.6125 88.2343 80.725C88.068 81.535 88.2295 82.3779 88.6834 83.0691C89.1374 83.7603 89.8467 84.2434 90.6562 84.4125Z" fill="#141515"/>
<path d="M134.478 24.7469C135.027 24.7449 135.566 24.5984 136.041 24.3219C137.791 23.3031 139.6 22.3312 141.41 21.4406C141.779 21.2605 142.11 21.0092 142.382 20.7011C142.655 20.393 142.864 20.0341 142.997 19.645C143.131 19.256 143.186 18.8444 143.16 18.4339C143.134 18.0234 143.028 17.622 142.846 17.2529C142.665 16.8837 142.412 16.554 142.103 16.2826C141.794 16.0113 141.434 15.8036 141.045 15.6715C140.655 15.5394 140.244 15.4855 139.833 15.513C139.423 15.5404 139.022 15.6485 138.653 15.8312C136.71 16.7875 134.772 17.8281 132.894 18.9219C132.301 19.2672 131.839 19.7979 131.578 20.4322C131.316 21.0665 131.271 21.769 131.449 22.4315C131.627 23.094 132.017 23.6796 132.561 24.0981C133.104 24.5165 133.77 24.7445 134.456 24.7469H134.478Z" fill="#141515"/>
<path d="M106.563 50.025C107.057 50.0257 107.545 49.9091 107.985 49.6847C108.426 49.4603 108.807 49.1346 109.097 48.7344C110.288 47.0875 111.55 45.4656 112.847 43.9125C113.378 43.2751 113.635 42.4529 113.56 41.6265C113.484 40.8002 113.084 40.0375 112.447 39.5062C111.81 38.975 110.987 38.7187 110.161 38.7937C109.335 38.8687 108.572 39.2689 108.041 39.9062C106.65 41.5687 105.3 43.3062 104.022 45.0687C103.78 45.4016 103.605 45.779 103.509 46.1794C103.413 46.5798 103.398 46.9952 103.463 47.4017C103.528 47.8083 103.672 48.198 103.889 48.5484C104.105 48.8988 104.388 49.2031 104.722 49.4437C105.258 49.829 105.903 50.0327 106.563 50.025Z" fill="#141515"/>
<path d="M95.8374 66.1781C96.2354 66.3571 96.6667 66.4498 97.1031 66.45C97.7098 66.4485 98.3029 66.2703 98.8101 65.9374C99.3173 65.6044 99.7166 65.131 99.9593 64.575C100.778 62.7312 101.678 60.8812 102.631 59.0812C103.019 58.3486 103.1 57.4918 102.856 56.6995C102.612 55.9072 102.064 55.2441 101.331 54.8562C100.599 54.4684 99.7418 54.3874 98.9494 54.6312C98.1571 54.875 97.4941 55.4236 97.1062 56.1562C96.0843 58.0844 95.1249 60.0656 94.2468 62.0437C94.0788 62.4195 93.9867 62.8248 93.9757 63.2362C93.9648 63.6477 94.0352 64.0573 94.183 64.4414C94.3308 64.8256 94.5531 65.1768 94.837 65.4748C95.1209 65.7729 95.4609 66.0119 95.8374 66.1781Z" fill="#141515"/>
<path d="M254.044 53.3625C254.486 54.0645 255.188 54.5623 255.997 54.7463C256.806 54.9303 257.654 54.7855 258.356 54.3438C259.058 53.902 259.556 53.1995 259.74 52.3907C259.924 51.582 259.779 50.7333 259.338 50.0313C258.185 48.2031 256.944 46.3844 255.656 44.625C255.422 44.2735 255.119 43.9731 254.765 43.742C254.412 43.5109 254.015 43.3539 253.599 43.2805C253.183 43.2071 252.756 43.2188 252.345 43.3149C251.934 43.411 251.546 43.5896 251.206 43.8397C250.865 44.0898 250.579 44.4064 250.364 44.7703C250.15 45.1341 250.011 45.5377 249.957 45.9567C249.903 46.3756 249.934 46.8012 250.049 47.2077C250.164 47.6143 250.36 47.9933 250.625 48.3219C251.819 49.9625 252.975 51.6563 254.044 53.3625Z" fill="#141515"/>
<path d="M242.734 39.0031C243.019 39.3022 243.361 39.5418 243.739 39.7081C244.117 39.8744 244.524 39.9641 244.937 39.9721C245.35 39.98 245.76 39.906 246.145 39.7543C246.529 39.6026 246.879 39.3763 247.175 39.0884C247.471 38.8005 247.708 38.4567 247.87 38.077C248.033 37.6973 248.118 37.2891 248.122 36.8761C248.126 36.463 248.047 36.0534 247.892 35.6707C247.736 35.2881 247.506 34.9401 247.216 34.6469C245.709 33.0844 244.125 31.575 242.497 30.1188C241.878 29.575 241.07 29.2976 240.247 29.3468C239.425 29.3961 238.655 29.768 238.106 30.3818C237.556 30.9955 237.271 31.8014 237.313 32.6241C237.355 33.4468 237.719 34.2199 238.328 34.775C239.847 36.1344 241.328 37.5594 242.734 39.0031Z" fill="#141515"/>
<path d="M94.4281 118.362C94.0062 116.397 93.65 114.375 93.3625 112.356C93.3095 111.946 93.1756 111.55 92.9686 111.192C92.7615 110.834 92.4854 110.52 92.1562 110.27C91.8271 110.019 91.4514 109.836 91.0511 109.732C90.6508 109.628 90.2337 109.604 89.8241 109.662C89.4145 109.72 89.0205 109.859 88.665 110.071C88.3095 110.282 87.9995 110.562 87.7531 110.895C87.5067 111.227 87.3287 111.605 87.2294 112.007C87.1302 112.408 87.1117 112.826 87.175 113.234C87.4875 115.397 87.8656 117.562 88.3156 119.669C88.465 120.368 88.8496 120.995 89.4052 121.444C89.9608 121.894 90.6539 122.14 91.3687 122.141C91.5894 122.142 91.8095 122.119 92.025 122.072C92.4264 121.986 92.8069 121.822 93.1449 121.589C93.4829 121.357 93.7717 121.059 93.9949 120.715C94.218 120.37 94.3711 119.985 94.4455 119.582C94.5198 119.178 94.5139 118.764 94.4281 118.362Z" fill="#141515"/>
<path d="M223.503 24.0625C225.259 25.0688 227.003 26.1563 228.687 27.2844C229.028 27.5142 229.411 27.6747 229.813 27.7567C230.216 27.8386 230.631 27.8405 231.034 27.7621C231.437 27.6838 231.821 27.5268 232.164 27.3C232.507 27.0733 232.801 26.7813 233.031 26.4406C233.261 26.1 233.422 25.7175 233.503 25.3148C233.585 24.9122 233.587 24.4974 233.509 24.094C233.431 23.6907 233.274 23.3067 233.047 22.964C232.82 22.6214 232.528 22.3267 232.187 22.0969C230.381 20.8875 228.516 19.725 226.631 18.6594C225.912 18.245 225.058 18.1332 224.257 18.3486C223.455 18.5639 222.772 19.0888 222.358 19.8078C221.943 20.5268 221.832 21.381 222.047 22.1824C222.262 22.9838 222.787 23.6669 223.506 24.0813L223.503 24.0625Z" fill="#141515"/>
<path d="M259.822 64.1031C260.65 65.9375 261.425 67.8375 262.131 69.7469C262.266 70.1418 262.478 70.5059 262.755 70.8175C263.033 71.1291 263.37 71.382 263.747 71.5612C264.124 71.7404 264.533 71.8424 264.949 71.8611C265.366 71.8797 265.783 71.8147 266.174 71.6699C266.565 71.525 266.924 71.3033 267.228 71.0177C267.532 70.7322 267.776 70.3886 267.945 70.0072C268.115 69.6258 268.206 69.2144 268.214 68.7972C268.221 68.38 268.146 67.9655 267.991 67.5781C267.237 65.5344 266.403 63.5156 265.522 61.5375C265.353 61.1632 265.113 60.8258 264.814 60.5445C264.515 60.2632 264.164 60.0435 263.78 59.898C263.396 59.7524 262.988 59.6839 262.577 59.6963C262.167 59.7088 261.763 59.8019 261.389 59.9703C261.015 60.1388 260.677 60.3793 260.396 60.6782C260.115 60.977 259.895 61.3284 259.749 61.7121C259.604 62.0959 259.535 62.5046 259.548 62.9148C259.56 63.3251 259.653 63.7289 259.822 64.1031Z" fill="#141515"/>
<path d="M188.881 12.9437C190.884 13.1469 192.919 13.4219 194.925 13.7656C195.332 13.8418 195.751 13.8363 196.156 13.7493C196.561 13.6623 196.945 13.4956 197.285 13.2589C197.625 13.0222 197.915 12.7202 198.137 12.3706C198.359 12.0209 198.51 11.6305 198.58 11.2221C198.65 10.8137 198.638 10.3955 198.545 9.99169C198.452 9.58793 198.279 9.20672 198.037 8.87023C197.796 8.53375 197.489 8.24872 197.136 8.03172C196.783 7.81472 196.391 7.67008 195.981 7.60623C193.834 7.23748 191.653 6.94061 189.503 6.72498C189.095 6.68395 188.682 6.72374 188.29 6.84208C187.897 6.96043 187.531 7.15501 187.213 7.41473C186.895 7.67444 186.632 7.9942 186.438 8.35574C186.243 8.71728 186.122 9.11353 186.081 9.52186C186.04 9.93019 186.08 10.3426 186.198 10.7356C186.317 11.1285 186.511 11.4943 186.771 11.812C187.031 12.1298 187.351 12.3933 187.712 12.5875C188.074 12.7816 188.47 12.9027 188.878 12.9437H188.881Z" fill="#141515"/>
<path d="M170.25 13.0188C170.363 13.0187 170.475 13.0125 170.588 13C172.616 12.7813 174.65 12.6344 176.672 12.5656C177.083 12.5515 177.487 12.4565 177.861 12.2861C178.234 12.1157 178.571 11.8732 178.851 11.5724C179.131 11.2717 179.349 10.9187 179.493 10.5336C179.636 10.1485 179.703 9.73883 179.688 9.32813C179.649 8.50307 179.288 7.72599 178.684 7.16304C178.08 6.60008 177.279 6.29594 176.453 6.31563C174.297 6.39375 172.103 6.55313 169.928 6.78438C169.099 6.82789 168.322 7.19886 167.766 7.81568C167.211 8.4325 166.924 9.24464 166.967 10.0734C167.011 10.9022 167.382 11.6798 167.999 12.2351C168.615 12.7904 169.427 13.0779 170.256 13.0344L170.25 13.0188Z" fill="#141515"/>
<path d="M206.772 16.6687C208.709 17.2937 210.647 17.9875 212.522 18.7406C212.905 18.9033 213.316 18.988 213.732 18.9898C214.148 18.9915 214.56 18.9102 214.944 18.7506C215.328 18.5911 215.676 18.3565 215.968 18.0606C216.26 17.7647 216.491 17.4135 216.645 17.0275C216.8 16.6415 216.876 16.2286 216.869 15.8128C216.862 15.397 216.773 14.9868 216.605 14.6061C216.438 14.2255 216.196 13.8821 215.894 13.5961C215.592 13.3101 215.236 13.0873 214.847 12.9406C212.834 12.1312 210.759 11.3781 208.684 10.7187C207.914 10.5225 207.097 10.6273 206.401 11.012C205.706 11.3966 205.182 12.0321 204.939 12.7889C204.695 13.5458 204.749 14.3672 205.089 15.0857C205.43 15.8042 206.032 16.3659 206.772 16.6562V16.6687Z" fill="#141515"/>
<path d="M151.744 16.9938C152.075 16.9923 152.404 16.9396 152.719 16.8375C154.631 16.2125 156.603 15.6375 158.581 15.1406C159.385 14.938 160.076 14.4243 160.501 13.7125C160.926 13.0008 161.051 12.1493 160.848 11.3453C160.646 10.5414 160.132 9.85087 159.42 9.42569C158.708 9.00051 157.857 8.87549 157.053 9.07813C154.934 9.6125 152.822 10.225 150.769 10.8969C150.06 11.1272 149.458 11.6028 149.069 12.2382C148.68 12.8735 148.531 13.6268 148.649 14.3622C148.767 15.0977 149.143 15.7669 149.71 16.2494C150.278 16.7319 150.999 16.9959 151.744 16.9938Z" fill="#141515"/>
<path d="M92.5 100C92.5 98.0083 92.5656 96.0354 92.6969 94.0813C92.7518 93.2546 92.4761 92.44 91.9305 91.8165C91.385 91.193 90.6141 90.8116 89.7875 90.7563C89.3771 90.7227 88.9641 90.7718 88.573 90.9006C88.1819 91.0295 87.8207 91.2355 87.5107 91.5065C87.2006 91.7775 86.9481 92.108 86.7681 92.4783C86.588 92.8486 86.4841 93.2513 86.4625 93.6625C86.3219 95.7563 86.25 97.8875 86.25 99.9125V100.178C86.2519 100.583 86.3348 100.984 86.4938 101.357C86.6527 101.73 86.8845 102.067 87.1756 102.349C87.4667 102.632 87.8112 102.853 88.1889 103C88.5666 103.147 88.9698 103.217 89.375 103.206C90.2112 103.185 91.006 102.838 91.5898 102.239C92.1736 101.64 92.5003 100.836 92.5 100Z" fill="#141515"/>
<path d="M207.109 183.219C205.172 183.844 203.197 184.416 201.247 184.9C200.846 184.997 200.468 185.171 200.136 185.415C199.803 185.658 199.521 185.964 199.307 186.317C199.093 186.669 198.951 187.06 198.889 187.468C198.827 187.875 198.847 188.291 198.946 188.691C199.045 189.091 199.223 189.468 199.468 189.799C199.714 190.13 200.022 190.409 200.376 190.621C200.73 190.832 201.122 190.972 201.53 191.031C201.938 191.09 202.354 191.068 202.753 190.966C204.847 190.447 206.966 189.841 209.044 189.162C209.449 189.049 209.828 188.854 210.156 188.59C210.485 188.326 210.756 187.999 210.955 187.628C211.154 187.256 211.275 186.848 211.312 186.429C211.349 186.009 211.301 185.586 211.171 185.186C211.04 184.785 210.83 184.415 210.553 184.098C210.276 183.781 209.937 183.523 209.558 183.34C209.179 183.156 208.766 183.052 208.345 183.032C207.925 183.012 207.504 183.078 207.109 183.225V183.219Z" fill="#141515"/>
<path d="M238.572 165C237.066 166.359 235.491 167.681 233.884 168.931C233.546 169.178 233.26 169.491 233.044 169.851C232.829 170.211 232.688 170.61 232.63 171.025C232.572 171.441 232.598 171.864 232.707 172.269C232.816 172.674 233.006 173.053 233.264 173.383C233.523 173.713 233.845 173.988 234.212 174.191C234.579 174.394 234.983 174.521 235.4 174.565C235.817 174.608 236.239 174.568 236.64 174.445C237.041 174.322 237.413 174.12 237.734 173.85C239.444 172.513 241.128 171.097 242.734 169.647C243.294 169.081 243.617 168.322 243.637 167.527C243.656 166.731 243.371 165.957 242.84 165.364C242.309 164.771 241.572 164.403 240.778 164.336C239.985 164.268 239.196 164.506 238.572 165Z" fill="#141515"/>
<path d="M223.8 175.769C222.044 176.784 220.235 177.75 218.419 178.641C217.781 178.949 217.268 179.466 216.962 180.105C216.656 180.744 216.577 181.468 216.737 182.158C216.896 182.848 217.286 183.464 217.842 183.903C218.397 184.343 219.085 184.581 219.794 184.578C220.269 184.581 220.739 184.474 221.166 184.266C223.113 183.328 225.05 182.281 226.931 181.194C227.622 180.766 228.12 180.087 228.318 179.299C228.516 178.511 228.4 177.677 227.993 176.973C227.587 176.269 226.922 175.752 226.141 175.53C225.359 175.308 224.522 175.399 223.806 175.784L223.8 175.769Z" fill="#141515"/>
<path d="M250.809 151.416C249.625 153.044 248.359 154.662 247.059 156.231C246.787 156.545 246.58 156.909 246.451 157.303C246.321 157.698 246.271 158.114 246.304 158.528C246.337 158.941 246.452 159.344 246.642 159.713C246.833 160.082 247.094 160.409 247.413 160.676C247.731 160.942 248.099 161.143 248.495 161.265C248.892 161.388 249.309 161.43 249.722 161.39C250.135 161.35 250.536 161.228 250.901 161.031C251.267 160.834 251.589 160.567 251.85 160.244C253.253 158.566 254.609 156.834 255.875 155.091C256.128 154.76 256.313 154.381 256.417 153.978C256.522 153.575 256.545 153.154 256.485 152.742C256.425 152.33 256.283 151.933 256.068 151.577C255.853 151.22 255.568 150.91 255.231 150.665C254.894 150.42 254.511 150.244 254.105 150.149C253.7 150.054 253.279 150.041 252.868 150.111C252.457 150.181 252.065 150.333 251.713 150.557C251.362 150.781 251.059 151.073 250.822 151.416H250.809Z" fill="#141515"/>
<path d="M270.625 96.4969C269.796 96.4969 269.001 96.8261 268.415 97.4122C267.829 97.9982 267.5 98.7931 267.5 99.6219V100C267.5 102.028 267.431 104.084 267.29 106.1C267.262 106.51 267.315 106.921 267.445 107.31C267.576 107.699 267.782 108.059 268.051 108.369C268.321 108.678 268.649 108.932 269.016 109.115C269.384 109.298 269.784 109.406 270.194 109.434H270.412C271.205 109.436 271.969 109.137 272.549 108.597C273.129 108.056 273.483 107.316 273.537 106.525C273.675 104.375 273.75 102.187 273.75 100V99.6219C273.75 98.7931 273.421 97.9982 272.835 97.4122C272.249 96.8261 271.454 96.4969 270.625 96.4969Z" fill="#141515"/>
<path d="M269.309 115.775C268.499 115.605 267.654 115.763 266.96 116.216C266.266 116.668 265.781 117.377 265.609 118.187C265.194 120.156 264.7 122.147 264.138 124.125C263.91 124.921 264.008 125.776 264.41 126.5C264.812 127.224 265.485 127.759 266.281 127.988C266.563 128.069 266.854 128.11 267.147 128.109C267.826 128.109 268.486 127.888 269.028 127.479C269.569 127.07 269.963 126.496 270.15 125.844C270.75 123.741 271.278 121.603 271.713 119.491C271.799 119.089 271.806 118.674 271.732 118.27C271.658 117.865 271.505 117.479 271.282 117.134C271.059 116.789 270.77 116.491 270.431 116.258C270.093 116.025 269.711 115.861 269.309 115.775Z" fill="#141515"/>
<path d="M264.094 133.997C263.337 133.66 262.477 133.638 261.703 133.935C260.93 134.232 260.306 134.824 259.969 135.581C259.147 137.419 258.244 139.266 257.284 141.072C256.896 141.804 256.814 142.66 257.056 143.452C257.299 144.245 257.846 144.908 258.578 145.297C259.028 145.538 259.53 145.663 260.041 145.663C260.608 145.663 261.165 145.51 261.652 145.218C262.138 144.926 262.536 144.507 262.803 144.006C263.831 142.075 264.8 140.097 265.675 138.122C266.012 137.365 266.035 136.506 265.738 135.732C265.442 134.959 264.85 134.334 264.094 133.997Z" fill="#141515"/>
<path d="M105.853 146.481C105.404 145.798 104.705 145.318 103.906 145.144C103.107 144.97 102.271 145.117 101.579 145.552C100.886 145.987 100.392 146.676 100.202 147.472C100.012 148.267 100.142 149.105 100.563 149.806C101.716 151.644 102.95 153.466 104.228 155.216C104.467 155.554 104.771 155.841 105.122 156.061C105.474 156.281 105.865 156.429 106.274 156.496C106.682 156.563 107.1 156.548 107.503 156.452C107.906 156.356 108.286 156.181 108.621 155.937C108.956 155.693 109.239 155.385 109.453 155.031C109.668 154.677 109.81 154.283 109.871 153.873C109.932 153.464 109.911 153.046 109.809 152.644C109.708 152.243 109.527 151.866 109.278 151.534C108.084 149.897 106.931 148.197 105.853 146.481Z" fill="#141515"/>
<path d="M136.337 175.847C134.587 174.834 132.844 173.747 131.156 172.609C130.816 172.38 130.434 172.22 130.031 172.138C129.629 172.057 129.215 172.055 128.812 172.133C128.409 172.212 128.025 172.369 127.683 172.596C127.341 172.822 127.047 173.114 126.817 173.455C126.588 173.795 126.428 174.177 126.346 174.58C126.264 174.982 126.263 175.396 126.341 175.799C126.42 176.202 126.577 176.586 126.803 176.928C127.03 177.27 127.322 177.564 127.662 177.794C129.472 179.013 131.341 180.178 133.212 181.259C133.568 181.468 133.961 181.604 134.37 181.66C134.778 181.716 135.193 181.69 135.592 181.585C135.99 181.479 136.364 181.296 136.691 181.046C137.019 180.796 137.293 180.483 137.499 180.126C137.705 179.769 137.839 179.375 137.892 178.966C137.945 178.558 137.917 178.142 137.809 177.745C137.701 177.347 137.515 176.975 137.263 176.649C137.01 176.323 136.696 176.051 136.337 175.847Z" fill="#141515"/>
<path d="M117.138 160.866C116.56 160.276 115.772 159.939 114.947 159.928C114.121 159.917 113.325 160.233 112.732 160.807C112.139 161.382 111.797 162.167 111.781 162.992C111.765 163.818 112.076 164.616 112.647 165.212C114.163 166.775 115.744 168.3 117.356 169.75C117.975 170.287 118.78 170.559 119.598 170.508C120.415 170.458 121.18 170.088 121.728 169.479C122.276 168.87 122.562 168.07 122.526 167.251C122.49 166.433 122.134 165.662 121.534 165.103C120.031 163.75 118.55 162.322 117.138 160.866Z" fill="#141515"/>
<path d="M100.103 135.731C99.2719 133.881 98.5 131.981 97.8063 130.084C97.6651 129.699 97.4494 129.345 97.1715 129.043C96.8936 128.741 96.559 128.497 96.1867 128.324C95.8144 128.152 95.4117 128.054 95.0017 128.037C94.5916 128.02 94.1823 128.084 93.7969 128.225C93.4116 128.366 93.0578 128.582 92.7558 128.86C92.4538 129.138 92.2095 129.472 92.0369 129.845C91.8642 130.217 91.7666 130.62 91.7495 131.03C91.7325 131.44 91.7964 131.849 91.9375 132.234C92.6844 134.266 93.5 136.297 94.3969 138.284C94.6433 138.836 95.0442 139.304 95.5511 139.632C96.058 139.961 96.6492 140.135 97.2532 140.134C97.7745 140.134 98.2875 140.003 98.7454 139.754C99.2033 139.505 99.5916 139.145 99.8749 138.707C100.158 138.27 100.327 137.768 100.367 137.248C100.407 136.729 100.316 136.207 100.103 135.731Z" fill="#141515"/>
<path d="M189.231 187.019C187.212 187.231 185.169 187.372 183.147 187.441C182.318 187.454 181.529 187.797 180.952 188.392C180.376 188.988 180.06 189.788 180.073 190.617C180.087 191.446 180.429 192.235 181.025 192.812C181.621 193.388 182.421 193.704 183.25 193.691H183.359C185.525 193.619 187.719 193.466 189.884 193.237C190.704 193.146 191.454 192.733 191.971 192.09C192.488 191.447 192.73 190.626 192.644 189.805C192.558 188.985 192.15 188.232 191.511 187.71C190.872 187.189 190.052 186.941 189.231 187.022V187.019Z" fill="#141515"/>
<path d="M170.938 187.038C168.938 186.831 166.903 186.55 164.891 186.203C164.074 186.062 163.234 186.251 162.557 186.728C161.879 187.206 161.419 187.933 161.278 188.75C161.137 189.567 161.326 190.406 161.803 191.084C162.281 191.761 163.008 192.221 163.825 192.362C165.978 192.734 168.156 193.034 170.3 193.253C170.404 193.265 170.508 193.271 170.613 193.272C171.441 193.313 172.253 193.024 172.868 192.467C173.483 191.91 173.852 191.132 173.894 190.303C173.935 189.474 173.646 188.663 173.089 188.048C172.532 187.432 171.754 187.063 170.925 187.022L170.938 187.038Z" fill="#141515"/>
<path d="M153.053 183.272C151.122 182.647 149.191 181.95 147.309 181.191C146.927 181.03 146.517 180.947 146.103 180.946C145.688 180.945 145.278 181.027 144.895 181.186C144.513 181.346 144.166 181.58 143.874 181.874C143.583 182.169 143.353 182.519 143.198 182.904C143.044 183.288 142.967 183.699 142.972 184.114C142.978 184.528 143.066 184.937 143.232 185.318C143.397 185.698 143.636 186.041 143.936 186.328C144.235 186.614 144.588 186.839 144.975 186.987C146.991 187.8 149.063 188.55 151.131 189.222C151.443 189.321 151.767 189.373 152.094 189.375C152.841 189.378 153.564 189.113 154.133 188.629C154.701 188.145 155.078 187.473 155.194 186.735C155.31 185.997 155.157 185.243 154.765 184.607C154.372 183.972 153.765 183.498 153.053 183.272Z" fill="#141515"/>
<path d="M183.125 134.375H210.031C212.704 124.167 214.149 113.676 214.334 103.125H183.125V134.375Z" fill="#141515"/>
<path d="M183.125 171.562C193.356 169.528 202.447 157.65 208.15 140.625H183.125V171.562Z" fill="#141515"/>
<path d="M214.878 140.625C211.945 151.303 206.514 161.131 199.034 169.297C215.397 164.772 229.638 154.619 239.25 140.625H214.878Z" fill="#141515"/>
<path d="M251.797 103.125H220.584C220.431 113.657 219.102 124.138 216.622 134.375H243.106C248.361 124.763 251.335 114.07 251.797 103.125Z" fill="#141515"/>
<path d="M199.034 30.7031C206.514 38.8693 211.945 48.6968 214.878 59.375H239.253C229.641 45.3806 215.398 35.2271 199.034 30.7031Z" fill="#141515"/>
<path d="M183.125 96.875H214.334C214.149 86.3242 212.704 75.8333 210.031 65.625H183.125V96.875Z" fill="#141515"/>
<path d="M251.797 96.875C251.335 85.9297 248.361 75.2374 243.106 65.625H216.622C219.102 75.8617 220.431 86.3433 220.584 96.875H251.797Z" fill="#141515"/>
<path d="M183.125 28.4375V59.375H208.15C202.447 42.3625 193.356 30.4844 183.125 28.4375Z" fill="#141515"/>
<path d="M176.875 103.125H145.666C145.852 113.676 147.297 124.166 149.969 134.375H176.875V103.125Z" fill="#141515"/>
<path d="M176.875 65.625H149.969C147.297 75.8336 145.852 86.3243 145.666 96.875H176.875V65.625Z" fill="#141515"/>
<path d="M176.875 171.562V140.625H151.85C157.553 157.637 166.644 169.516 176.875 171.562Z" fill="#141515"/>
<path d="M176.875 28.4375C166.644 30.4719 157.553 42.35 151.85 59.375H176.875V28.4375Z" fill="#141515"/>
<path d="M108.203 96.875H139.416C139.569 86.3433 140.898 75.8617 143.378 65.625H116.897C111.639 75.2366 108.665 85.9292 108.203 96.875Z" fill="#141515"/>
<path d="M160.966 30.7031C144.603 35.2285 130.362 45.3817 120.75 59.375H145.125C148.056 48.6966 153.486 38.8687 160.966 30.7031Z" fill="#141515"/>
<path d="M143.378 134.375C140.898 124.138 139.569 113.657 139.416 103.125H108.203C108.665 114.071 111.639 124.763 116.897 134.375H143.378Z" fill="#141515"/>
<path d="M160.966 169.297C153.486 161.131 148.056 151.303 145.125 140.625H120.75C130.362 154.618 144.603 164.772 160.966 169.297Z" fill="#141515"/>
<path d="M90 179.644C89.029 179.644 88.2422 178.858 88.2422 177.887V120.154C88.2422 119.183 89.029 118.396 90 118.396C90.971 118.396 91.7578 119.183 91.7578 120.154V177.887C91.7578 178.858 90.971 179.644 90 179.644Z" fill="white"/>
<path d="M111.438 58.6077L105.597 55.6855C104.953 44.7541 101.9 34.0117 96.6621 24.3782C95.2924 21.8596 92.7632 20.3556 89.8959 20.3556C87.0293 20.3556 84.5001 21.8596 83.1304 24.3782C77.8921 34.0124 74.8392 44.7541 74.1958 55.6855L68.3542 58.6077C62.8896 61.3415 59.4949 66.8357 59.4949 72.9466V83.3402C59.4949 84.3112 60.2817 85.098 61.2527 85.098H78.3365V95.6469C78.3365 96.618 79.1233 97.4048 80.0943 97.4048H99.8873C100.858 97.4048 101.645 96.618 101.645 95.6469V85.098H118.541C119.512 85.098 120.299 84.3112 120.299 83.3402V72.9466C120.298 66.8357 116.903 61.3415 111.438 58.6077ZM63.0098 72.9466C63.0098 68.1759 65.6606 63.8861 69.9264 61.7521L74.0629 59.6828V81.5823H63.0098V72.9466ZM77.5785 60.0337C77.5785 48.2015 80.5661 36.453 86.2186 26.058C86.9632 24.689 88.3378 23.8719 89.8952 23.8719C91.4533 23.8719 92.8279 24.689 93.5725 26.058C99.225 36.453 102.213 48.2015 102.213 60.0337V81.5823H91.6537V58.7786C91.6537 57.8076 90.8669 57.0208 89.8959 57.0208C88.9249 57.0208 88.1381 57.8076 88.1381 58.7786V81.583H77.5785V60.0337ZM98.1288 93.8891H81.8514V85.098H98.1288V93.8891ZM116.782 81.5823H105.728V59.6828L109.865 61.7521C114.131 63.8861 116.782 68.1759 116.782 72.9466V81.5823Z" fill="#FFBED2"/>
<path d="M90 99.017C89.029 99.017 88.2422 99.8038 88.2422 100.775V110.607C88.2422 111.578 89.029 112.364 90 112.364C90.971 112.364 91.7578 111.578 91.7578 110.607V100.775C91.7578 99.8038 90.971 99.017 90 99.017Z" fill="#D3708E"/>
<path d="M83.4939 99.017C82.5229 99.017 81.7361 99.8038 81.7361 100.775V104.493C81.7361 105.464 82.5229 106.251 83.4939 106.251C84.4649 106.251 85.2517 105.464 85.2517 104.493V100.775C85.2517 99.8038 84.4642 99.017 83.4939 99.017Z" fill="#D3708E"/>
<path d="M96.5059 99.017C95.5348 99.017 94.748 99.8038 94.748 100.775V104.493C94.748 105.464 95.5348 106.251 96.5059 106.251C97.4769 106.251 98.2637 105.464 98.2637 104.493V100.775C98.2637 99.8038 97.4769 99.017 96.5059 99.017Z" fill="#D3708E"/>
<path d="M140.877 89.7646L126.589 81.5148C125.748 81.0283 124.672 81.3173 124.187 82.1582C123.702 82.9991 123.99 84.0742 124.831 84.5594L136.483 91.2869L90 118.124L43.5171 91.2869L55.2459 84.5151C56.0869 84.0299 56.3744 82.9548 55.8893 82.1139C55.4041 81.273 54.3283 80.984 53.4881 81.4706L39.1226 89.7646C38.579 90.0789 38.2437 90.659 38.2437 91.2869V149.02C38.2437 149.648 38.579 150.228 39.1226 150.542L89.1211 179.409C89.3932 179.566 89.6962 179.644 90 179.644C90.3037 179.644 90.6068 179.566 90.8789 179.409L140.877 150.542C141.421 150.228 141.756 149.648 141.756 149.02V91.2869C141.756 90.659 141.421 90.0789 140.877 89.7646ZM90 175.857L41.7593 148.005V94.3314L89.1211 121.676C89.3932 121.833 89.6962 121.911 90 121.911C90.3037 121.911 90.6068 121.833 90.8789 121.676L138.241 94.3314V148.005L90 175.857Z" fill="white"/>
<path d="M83.3891 48.3991H96.6107C97.2484 48.3991 97.8362 48.0538 98.147 47.4963C98.4571 46.9394 98.4409 46.2573 98.1048 45.7152L91.494 35.0523C91.1734 34.5356 90.6081 34.2206 89.9999 34.2206C89.3917 34.2206 88.8264 34.5348 88.5058 35.0523L81.895 45.7152C81.5589 46.2573 81.5434 46.9394 81.8528 47.4963C82.1636 48.0538 82.7514 48.3991 83.3891 48.3991ZM89.9999 39.3147L93.4529 44.8834H86.5475L89.9999 39.3147Z" fill="white"/>
</svg>
