<svg width="280" height="200" viewBox="0 0 280 200" fill="none" xmlns="http://www.w3.org/2000/svg">
<path d="M95.625 162.5H105V59.375C105 58.5463 105.33 57.7515 105.916 57.1656L138.081 25H95.625C94.7962 25 94.0013 25.3292 93.4153 25.9153C92.8292 26.5013 92.5 27.2962 92.5 28.125V159.375C92.5 160.204 92.8292 160.999 93.4153 161.585C94.0013 162.171 94.7962 162.5 95.625 162.5Z" fill="#141515"/>
<path d="M242.5 129.859L216.438 175H239.375C240.204 175 240.999 174.671 241.585 174.085C242.171 173.499 242.5 172.704 242.5 171.875V129.859Z" fill="#141515"/>
<path d="M114.375 175H187.188L187.934 162.538C187.963 162.053 188.105 161.583 188.347 161.162L242.775 66.875C242.597 66.4821 242.503 66.0563 242.5 65.625V15.625C242.5 14.7962 242.171 14.0013 241.585 13.4153C240.999 12.8292 240.204 12.5 239.375 12.5H161.25V53.125C161.25 55.6114 160.262 57.996 158.504 59.7541C156.746 61.5123 154.361 62.5 151.875 62.5H111.25V171.875C111.25 172.704 111.579 173.499 112.165 174.085C112.751 174.671 113.546 175 114.375 175Z" fill="#141515"/>
<path d="M249.894 92.0531L210.05 161.066L213.119 168.247L255.306 95.1781L249.894 92.0531Z" fill="#141515"/>
<path d="M155 53.125V16.9187L115.669 56.25H151.875C152.704 56.25 153.499 55.9207 154.085 55.3347C154.671 54.7486 155 53.9538 155 53.125Z" fill="#141515"/>
<path d="M250 66.875L248.438 69.5812L264.687 78.9562L266.25 76.25C267.493 74.0951 267.829 71.5346 267.185 69.1318C266.54 66.729 264.967 64.6807 262.812 63.4375C260.658 62.1943 258.097 61.858 255.694 62.5027C253.292 63.1473 251.243 64.7201 250 66.875Z" fill="#141515"/>
<path d="M197.187 177.091C196.002 176.412 194.733 175.892 193.412 175.544L192.869 184.572L200.394 179.606C199.439 178.632 198.361 177.786 197.187 177.091Z" fill="#141515"/>
<path d="M242.187 80.386L245.31 74.9762L261.545 84.3496L258.422 89.7594L242.187 80.386Z" fill="#141515"/>
<path d="M239.069 85.8031L196.881 158.875L204.637 157.941L244.481 88.9281L239.069 85.8031Z" fill="#141515"/>
<path d="M208.8 174.063L204.609 164.247L194.016 165.525L193.791 169.228C198.407 170.156 202.592 172.571 205.706 176.103L208.8 174.063Z" fill="#141515"/>
<path d="M142.025 98.2569H126.193C124.33 89.7801 109.104 83.3704 90 83.3704C70.8961 83.3704 55.6699 89.7801 53.8067 98.2569H37.9751C37.5089 98.2569 37.0618 98.4421 36.7321 98.7718C36.4025 99.1014 36.2173 99.5485 36.2173 100.015C36.2173 100.481 36.4025 100.928 36.7321 101.258C37.0618 101.587 37.5089 101.773 37.9751 101.773H53.8067C55.6699 110.25 70.8926 116.659 90 116.659C109.107 116.659 124.33 110.25 126.193 101.773H142.025C142.491 101.773 142.938 101.587 143.268 101.258C143.598 100.928 143.783 100.481 143.783 100.015C143.783 99.5485 143.598 99.1014 143.268 98.7718C142.938 98.4421 142.491 98.2569 142.025 98.2569ZM90 113.143C70.3371 113.143 57.1289 106.356 57.1289 100.015C57.1289 93.674 70.3371 86.886 90 86.886C109.663 86.886 122.871 93.6747 122.871 100.015C122.871 106.355 109.663 113.143 90 113.143Z" fill="#D3708E"/>
<path d="M154.458 106.336C153.205 106.336 151.98 105.964 150.938 105.268C149.896 104.572 149.084 103.583 148.604 102.425C148.124 101.267 147.999 99.9934 148.243 98.7643C148.488 97.5352 149.091 96.4062 149.977 95.52C150.863 94.6339 151.992 94.0304 153.221 93.7859C154.45 93.5413 155.724 93.6668 156.882 94.1463C158.04 94.6258 159.029 95.4379 159.725 96.4798C160.422 97.5218 160.793 98.7468 160.793 99.9999C160.791 101.68 160.123 103.29 158.936 104.478C157.748 105.666 156.138 106.334 154.458 106.336ZM154.458 97.1797C153.9 97.1796 153.355 97.3448 152.891 97.6546C152.427 97.9645 152.066 98.4049 151.852 98.9202C151.639 99.4355 151.583 100.003 151.691 100.55C151.8 101.097 152.069 101.599 152.463 101.994C152.857 102.388 153.36 102.657 153.907 102.766C154.454 102.875 155.021 102.819 155.537 102.606C156.052 102.392 156.492 102.031 156.802 101.567C157.112 101.103 157.278 100.558 157.278 99.9999C157.277 99.2523 156.98 98.5355 156.451 98.0068C155.923 97.4781 155.206 97.1806 154.458 97.1797Z" fill="#FFBED2"/>
<path d="M25.5424 106.336C24.2892 106.336 23.0642 105.964 22.0222 105.268C20.9802 104.572 20.168 103.583 19.6883 102.425C19.2087 101.267 19.0831 99.9934 19.3275 98.7643C19.5719 97.5352 20.1752 96.4062 21.0613 95.52C21.9474 94.6339 23.0763 94.0304 24.3053 93.7859C25.5344 93.5413 26.8084 93.6668 27.9661 94.1463C29.1239 94.6258 30.1135 95.4379 30.8097 96.4798C31.5059 97.5218 31.8775 98.7468 31.8775 99.9999C31.8757 101.68 31.2076 103.29 30.02 104.478C28.8323 105.666 27.2221 106.334 25.5424 106.336ZM25.5424 97.1797C24.9846 97.1796 24.4392 97.3448 23.9753 97.6546C23.5115 97.9645 23.1499 98.4049 22.9363 98.9202C22.7228 99.4355 22.6668 100.003 22.7755 100.55C22.8843 101.097 23.1528 101.599 23.5472 101.994C23.9416 102.388 24.4441 102.657 24.9912 102.766C25.5383 102.875 26.1054 102.819 26.6208 102.606C27.1361 102.392 27.5766 102.031 27.8866 101.567C28.1965 101.103 28.3619 100.558 28.3619 99.9999C28.3612 99.2523 28.0639 98.5355 27.5353 98.0068C27.0067 97.4781 26.29 97.1806 25.5424 97.1797Z" fill="#FFBED2"/>
<path d="M90 46.2257C79.3615 46.2257 68.962 49.3804 60.1164 55.2908C51.2709 61.2012 44.3766 69.6019 40.3054 79.4306C36.2342 89.2593 35.169 100.074 37.2445 110.508C39.32 120.943 44.4429 130.527 51.9654 138.049C59.4879 145.572 69.0722 150.695 79.5063 152.77C89.9403 154.846 100.756 153.781 110.584 149.709C120.413 145.638 128.814 138.744 134.724 129.898C140.634 121.053 143.789 110.653 143.789 100.015C143.773 85.754 138.101 72.0819 128.017 61.998C117.933 51.9141 104.261 46.2419 90 46.2257ZM90 132.886C83.6592 132.886 76.8706 119.678 76.8706 100.015C76.8706 80.3519 83.6592 67.1437 90 67.1437C96.3408 67.1437 103.129 80.3526 103.129 100.015C103.129 119.677 96.3408 132.886 90 132.886ZM39.7266 100.015C39.7431 86.9921 44.8072 74.4829 53.8545 65.1161C62.9019 55.7494 75.2279 50.2545 88.2422 49.7863V63.8214C79.7646 65.6847 73.3549 80.9116 73.3549 100.015C73.3549 119.118 79.7646 134.346 88.2422 136.209V150.244C75.2278 149.776 62.9016 144.281 53.8543 134.914C44.8069 125.547 39.7429 113.038 39.7266 100.015ZM91.7578 150.244V136.211C100.235 134.348 106.645 119.121 106.645 100.017C106.645 80.913 100.235 65.6875 91.7578 63.8214V49.7863C104.776 50.2407 117.109 55.7316 126.158 65.1017C135.207 74.4718 140.264 86.9891 140.264 100.015C140.264 113.041 135.207 125.558 126.158 134.929C117.109 144.299 104.776 149.79 91.7578 150.244Z" fill="white"/>
<path d="M89.9999 41.8775C91.253 41.8775 92.478 41.5059 93.5199 40.8097C94.5619 40.1136 95.3739 39.124 95.8535 37.9663C96.333 36.8086 96.4585 35.5346 96.214 34.3056C95.9696 33.0766 95.3661 31.9476 94.48 31.0615C93.594 30.1755 92.465 29.572 91.236 29.3276C90.007 29.0831 88.733 29.2086 87.5753 29.6881C86.4176 30.1676 85.428 30.9797 84.7318 32.0217C84.0357 33.0636 83.6641 34.2886 83.6641 35.5417C83.6659 37.2215 84.3341 38.8319 85.5219 40.0198C86.7097 41.2076 88.3201 41.8757 89.9999 41.8775ZM89.9999 32.7221C90.5577 32.7221 91.103 32.8876 91.5668 33.1975C92.0306 33.5074 92.3921 33.9479 92.6055 34.4633C92.819 34.9787 92.8748 35.5457 92.7659 36.0928C92.657 36.6399 92.3884 37.1424 91.9939 37.5368C91.5994 37.9312 91.0968 38.1998 90.5497 38.3085C90.0026 38.4172 89.4355 38.3613 88.9202 38.1477C88.4049 37.9342 87.9644 37.5726 87.6546 37.1087C87.3448 36.6448 87.1795 36.0995 87.1797 35.5417C87.1806 34.7941 87.4781 34.0773 88.0068 33.5487C88.5355 33.0202 89.2523 32.7229 89.9999 32.7221Z" fill="white"/>
<path d="M89.9999 158.122C88.7468 158.122 87.5218 158.494 86.4799 159.19C85.438 159.886 84.6259 160.876 84.1464 162.034C83.6668 163.191 83.5413 164.465 83.7858 165.694C84.0303 166.923 84.6337 168.052 85.5198 168.938C86.4059 169.825 87.5348 170.428 88.7639 170.672C89.9929 170.917 91.2668 170.791 92.4246 170.312C93.5823 169.832 94.5718 169.02 95.268 167.978C95.9642 166.936 96.3358 165.711 96.3358 164.458C96.3339 162.778 95.6658 161.168 94.478 159.98C93.2902 158.792 91.6797 158.124 89.9999 158.122ZM89.9999 167.278C89.4421 167.278 88.8968 167.112 88.433 166.802C87.9692 166.493 87.6077 166.052 87.3943 165.537C87.1809 165.021 87.1251 164.454 87.2339 163.907C87.3428 163.36 87.6115 162.858 88.006 162.463C88.4004 162.069 88.903 161.8 89.4502 161.691C89.9973 161.583 90.5643 161.639 91.0797 161.852C91.595 162.066 92.0354 162.427 92.3452 162.891C92.655 163.355 92.8203 163.9 92.8202 164.458C92.819 165.206 92.5215 165.922 91.9929 166.451C91.4642 166.98 90.7475 167.277 89.9999 167.278Z" fill="white"/>
</svg>
