<svg width="1440" height="331" viewBox="0 0 1440 331" fill="none" xmlns="http://www.w3.org/2000/svg">
<g opacity="0.8">
<path d="M0 10.6122L59.8712 0.927221L59.7234 0L0 9.66215V10.6122Z" fill="url(#paint0_linear)"/>
<path d="M0 21.2508L114.798 0.924387L114.635 0.000976562L0 20.2982V21.2508Z" fill="url(#paint1_linear)"/>
<path d="M0 34.1069L169.727 0.922529L169.549 0.00292969L0 33.1517V34.1069Z" fill="url(#paint2_linear)"/>
<path d="M0 49.957L224.658 0.919696L224.458 0.00390625L0 48.998V49.957Z" fill="url(#paint3_linear)"/>
<path d="M0 69.9858L279.589 0.919303L279.366 0.00732422L0 69.0192V69.9858Z" fill="url(#paint4_linear)"/>
<path d="M0 96.09L334.525 0.914024L334.272 0.012207L0 95.1171V96.09Z" fill="url(#paint5_linear)"/>
<path d="M0 131.534L389.466 0.907476L389.17 0.0170898L0 130.546V131.534Z" fill="url(#paint6_linear)"/>
<path d="M0 182.421L444.414 0.897602L444.063 0.0288086L0 181.41V182.421Z" fill="url(#paint7_linear)"/>
<path d="M0 261.654L499.374 0.87854L498.944 0.0478516L0 260.598V261.654Z" fill="url(#paint8_linear)"/>
<path d="M553.904 0.216614L97.541 330.1L98.0859 330.862L554.449 0.978756L553.904 0.216614Z" fill="url(#paint9_linear)"/>
<path d="M329.251 330.923L328.54 330.315L608.644 0.160156L609.355 0.767295L329.251 330.923Z" fill="url(#paint10_linear)"/>
<path d="M560.325 330.76L559.436 330.478L663.475 0.322754L664.363 0.604731L560.325 330.76Z" fill="url(#paint11_linear)"/>
<path d="M719.295 0.361649L718.385 0.5625L790.411 330.718L791.322 330.517L719.295 0.361649Z" fill="url(#paint12_linear)"/>
<path d="M774.13 0.180285L773.388 0.744629L1021.48 330.901L1022.22 330.336L774.13 0.180285Z" fill="url(#paint13_linear)"/>
<path d="M1252.55 330.989L828.394 0.833475L828.966 0.0942383L1253.12 330.25L1252.55 330.989Z" fill="url(#paint14_linear)"/>
<path d="M1440 305.979L883.824 0.0507812L883.377 0.875119L1440 307.05V305.979Z" fill="url(#paint15_linear)"/>
<path d="M1440 213.233L938.703 0.0317383L938.339 0.895451L1440 214.253V213.233Z" fill="url(#paint16_linear)"/>
<path d="M1440 154.779L993.592 0.0205078L993.291 0.907083L1440 155.769V154.779Z" fill="url(#paint17_linear)"/>
<path d="M1440 114.561L1048.49 0.0126953L1048.23 0.914513L1440 115.539V114.561Z" fill="url(#paint18_linear)"/>
<path d="M1440 85.2013L1103.39 0.00878906L1103.17 0.916957L1440 86.1679V85.2013Z" fill="url(#paint19_linear)"/>
<path d="M1440 62.8234L1158.3 0.00488281L1158.1 0.920672L1440 63.7837V62.8234Z" fill="url(#paint20_linear)"/>
<path d="M1440 45.2015L1213.21 0.00390625L1213.03 0.923506L1440 46.1566V45.2015Z" fill="url(#paint21_linear)"/>
<path d="M1440 30.9656L1268.12 0.00146484L1267.96 0.924875L1440 31.9182V30.9656Z" fill="url(#paint22_linear)"/>
<path d="M1440 19.2239L1323.04 0L1322.89 0.927221L1440 20.1753V19.2239Z" fill="url(#paint23_linear)"/>
<path d="M1440 9.37636L1377.95 0L1377.81 0.927221L1440 10.3239V9.37636Z" fill="url(#paint24_linear)"/>
<path d="M1440 0.0258789H0V0.963261H1440V0.0258789Z" fill="url(#paint25_linear)"/>
<path d="M1440 5.34229H0V6.27967H1440V5.34229Z" fill="url(#paint26_linear)"/>
<path d="M1440 11.2056H0V12.1429H1440V11.2056Z" fill="url(#paint27_linear)"/>
<path d="M1440 17.6982H0V18.6356H1440V17.6982Z" fill="url(#paint28_linear)"/>
<path d="M1440 24.9331H0V25.8705H1440V24.9331Z" fill="url(#paint29_linear)"/>
<path d="M1440 33.0396H0V33.9769H1440V33.0396Z" fill="url(#paint30_linear)"/>
<path d="M1440 42.1885H0V43.1259H1440V42.1885Z" fill="url(#paint31_linear)"/>
<path d="M1440 52.5952H0V53.5326H1440V52.5952Z" fill="url(#paint32_linear)"/>
<path d="M1440 64.5371H0V65.4745H1440V64.5371Z" fill="url(#paint33_linear)"/>
<path d="M1440 78.3818H0V79.3192H1440V78.3818Z" fill="url(#paint34_linear)"/>
<path d="M1440 94.6221H0V95.5595H1440V94.6221Z" fill="url(#paint35_linear)"/>
<path d="M1440 113.94H0V114.878H1440V113.94Z" fill="url(#paint36_linear)"/>
<path d="M1440 137.301H0V138.239H1440V137.301Z" fill="url(#paint37_linear)"/>
<path d="M1440 166.123H0V167.06H1440V166.123Z" fill="url(#paint38_linear)"/>
<path d="M1440 202.575H0V203.512H1440V202.575Z" fill="url(#paint39_linear)"/>
<path d="M1440 250.145H0V251.082H1440V250.145Z" fill="url(#paint40_linear)"/>
<path d="M1440 314.842H0V315.78H1440V314.842Z" fill="url(#paint41_linear)"/>
</g>
<defs>
<linearGradient id="paint0_linear" x1="32.2421" y1="-37.9487" x2="15.4933" y2="272.569" gradientUnits="userSpaceOnUse">
<stop stop-color="#FFBED2"/>
<stop offset="1" stop-color="#140035"/>
</linearGradient>
<linearGradient id="paint1_linear" x1="5444.77" y1="-609.913" x2="5393.04" y2="4599.65" gradientUnits="userSpaceOnUse">
<stop stop-color="#FFBED2"/>
<stop offset="1" stop-color="#140035"/>
</linearGradient>
<linearGradient id="paint2_linear" x1="11775.5" y1="-938.674" x2="11685.4" y2="7421.94" gradientUnits="userSpaceOnUse">
<stop stop-color="#FFBED2"/>
<stop offset="1" stop-color="#140035"/>
</linearGradient>
<linearGradient id="paint3_linear" x1="20532.4" y1="-1315.96" x2="20386.3" y2="10929.8" gradientUnits="userSpaceOnUse">
<stop stop-color="#FFBED2"/>
<stop offset="1" stop-color="#140035"/>
</linearGradient>
<linearGradient id="paint4_linear" x1="31732.5" y1="-1760.51" x2="31502.2" y2="15393.8" gradientUnits="userSpaceOnUse">
<stop stop-color="#FFBED2"/>
<stop offset="1" stop-color="#140035"/>
</linearGradient>
<linearGradient id="paint5_linear" x1="45404.7" y1="-2302.49" x2="45041.9" y2="21248.3" gradientUnits="userSpaceOnUse">
<stop stop-color="#FFBED2"/>
<stop offset="1" stop-color="#140035"/>
</linearGradient>
<linearGradient id="paint6_linear" x1="61597.9" y1="-2993.57" x2="61014" y2="29241.1" gradientUnits="userSpaceOnUse">
<stop stop-color="#FFBED2"/>
<stop offset="1" stop-color="#140035"/>
</linearGradient>
<linearGradient id="paint7_linear" x1="80403" y1="-3928.88" x2="79419" y2="40768.2" gradientUnits="userSpaceOnUse">
<stop stop-color="#FFBED2"/>
<stop offset="1" stop-color="#140035"/>
</linearGradient>
<linearGradient id="paint8_linear" x1="102011" y1="-5307.41" x2="100210" y2="58782.3" gradientUnits="userSpaceOnUse">
<stop stop-color="#FFBED2"/>
<stop offset="1" stop-color="#140035"/>
</linearGradient>
<linearGradient id="paint9_linear" x1="133799" y1="313.179" x2="133799" y2="543.315" gradientUnits="userSpaceOnUse">
<stop stop-color="#FFBED2"/>
<stop offset="1" stop-color="#140035"/>
</linearGradient>
<linearGradient id="paint10_linear" x1="106709" y1="-3613.75" x2="101605" y2="77160.3" gradientUnits="userSpaceOnUse">
<stop stop-color="#FFBED2"/>
<stop offset="1" stop-color="#140035"/>
</linearGradient>
<linearGradient id="paint11_linear" x1="52149.1" y1="-1609.57" x2="38842.9" y2="77159.1" gradientUnits="userSpaceOnUse">
<stop stop-color="#FFBED2"/>
<stop offset="1" stop-color="#140035"/>
</linearGradient>
<linearGradient id="paint12_linear" x1="1292.21" y1="59991.6" x2="-2957.34" y2="60210.1" gradientUnits="userSpaceOnUse">
<stop stop-color="#FFBED2"/>
<stop offset="1" stop-color="#140035"/>
</linearGradient>
<linearGradient id="paint13_linear" x1="1539.13" y1="75913.2" x2="-2708.54" y2="76091.4" gradientUnits="userSpaceOnUse">
<stop stop-color="#FFBED2"/>
<stop offset="1" stop-color="#140035"/>
</linearGradient>
<linearGradient id="paint14_linear" x1="353444" y1="4396.69" x2="350059" y2="85383.8" gradientUnits="userSpaceOnUse">
<stop stop-color="#FFBED2"/>
<stop offset="1" stop-color="#140035"/>
</linearGradient>
<linearGradient id="paint15_linear" x1="515863" y1="5643" x2="513638" y2="80847.3" gradientUnits="userSpaceOnUse">
<stop stop-color="#FFBED2"/>
<stop offset="1" stop-color="#140035"/>
</linearGradient>
<linearGradient id="paint16_linear" x1="474970" y1="4164.49" x2="473768" y2="56659.7" gradientUnits="userSpaceOnUse">
<stop stop-color="#FFBED2"/>
<stop offset="1" stop-color="#140035"/>
</linearGradient>
<linearGradient id="paint17_linear" x1="432239" y1="3198.64" x2="431526" y2="41371.9" gradientUnits="userSpaceOnUse">
<stop stop-color="#FFBED2"/>
<stop offset="1" stop-color="#140035"/>
</linearGradient>
<linearGradient id="paint18_linear" x1="387421" y1="2501.74" x2="386973" y2="30819.5" gradientUnits="userSpaceOnUse">
<stop stop-color="#FFBED2"/>
<stop offset="1" stop-color="#140035"/>
</linearGradient>
<linearGradient id="paint19_linear" x1="340391" y1="1963.14" x2="340102" y2="23083.7" gradientUnits="userSpaceOnUse">
<stop stop-color="#FFBED2"/>
<stop offset="1" stop-color="#140035"/>
</linearGradient>
<linearGradient id="paint20_linear" x1="291091" y1="1525.78" x2="290901" y2="17160.7" gradientUnits="userSpaceOnUse">
<stop stop-color="#FFBED2"/>
<stop offset="1" stop-color="#140035"/>
</linearGradient>
<linearGradient id="paint21_linear" x1="239487" y1="1156.87" x2="239364" y2="12471.2" gradientUnits="userSpaceOnUse">
<stop stop-color="#FFBED2"/>
<stop offset="1" stop-color="#140035"/>
</linearGradient>
<linearGradient id="paint22_linear" x1="185555" y1="836.634" x2="185477" y2="8661.18" gradientUnits="userSpaceOnUse">
<stop stop-color="#FFBED2"/>
<stop offset="1" stop-color="#140035"/>
</linearGradient>
<linearGradient id="paint23_linear" x1="129284" y1="552.037" x2="129238" y2="5498.18" gradientUnits="userSpaceOnUse">
<stop stop-color="#FFBED2"/>
<stop offset="1" stop-color="#140035"/>
</linearGradient>
<linearGradient id="paint24_linear" x1="70660.7" y1="294.376" x2="70638.1" y2="2825.39" gradientUnits="userSpaceOnUse">
<stop stop-color="#FFBED2"/>
<stop offset="1" stop-color="#140035"/>
</linearGradient>
<linearGradient id="paint25_linear" x1="820882" y1="-0.60029" x2="820882" y2="229.227" gradientUnits="userSpaceOnUse">
<stop stop-color="#FFBED2"/>
<stop offset="1" stop-color="#140035"/>
</linearGradient>
<linearGradient id="paint26_linear" x1="821205" y1="4.72736" x2="821205" y2="234.555" gradientUnits="userSpaceOnUse">
<stop stop-color="#FFBED2"/>
<stop offset="1" stop-color="#140035"/>
</linearGradient>
<linearGradient id="paint27_linear" x1="821559" y1="10.6028" x2="821559" y2="240.43" gradientUnits="userSpaceOnUse">
<stop stop-color="#FFBED2"/>
<stop offset="1" stop-color="#140035"/>
</linearGradient>
<linearGradient id="paint28_linear" x1="821953" y1="17.1096" x2="821953" y2="246.937" gradientUnits="userSpaceOnUse">
<stop stop-color="#FFBED2"/>
<stop offset="1" stop-color="#140035"/>
</linearGradient>
<linearGradient id="paint29_linear" x1="822393" y1="24.3594" x2="822393" y2="254.187" gradientUnits="userSpaceOnUse">
<stop stop-color="#FFBED2"/>
<stop offset="1" stop-color="#140035"/>
</linearGradient>
<linearGradient id="paint30_linear" x1="822884" y1="32.4827" x2="822884" y2="262.31" gradientUnits="userSpaceOnUse">
<stop stop-color="#FFBED2"/>
<stop offset="1" stop-color="#140035"/>
</linearGradient>
<linearGradient id="paint31_linear" x1="823438" y1="41.6514" x2="823438" y2="271.477" gradientUnits="userSpaceOnUse">
<stop stop-color="#FFBED2"/>
<stop offset="1" stop-color="#140035"/>
</linearGradient>
<linearGradient id="paint32_linear" x1="824069" y1="52.0806" x2="824069" y2="281.906" gradientUnits="userSpaceOnUse">
<stop stop-color="#FFBED2"/>
<stop offset="1" stop-color="#140035"/>
</linearGradient>
<linearGradient id="paint33_linear" x1="824792" y1="64.0628" x2="824792" y2="293.889" gradientUnits="userSpaceOnUse">
<stop stop-color="#FFBED2"/>
<stop offset="1" stop-color="#140035"/>
</linearGradient>
<linearGradient id="paint34_linear" x1="825633" y1="77.9216" x2="825633" y2="307.75" gradientUnits="userSpaceOnUse">
<stop stop-color="#FFBED2"/>
<stop offset="1" stop-color="#140035"/>
</linearGradient>
<linearGradient id="paint35_linear" x1="826618" y1="94.1965" x2="826618" y2="324.025" gradientUnits="userSpaceOnUse">
<stop stop-color="#FFBED2"/>
<stop offset="1" stop-color="#140035"/>
</linearGradient>
<linearGradient id="paint36_linear" x1="827790" y1="113.555" x2="827790" y2="343.384" gradientUnits="userSpaceOnUse">
<stop stop-color="#FFBED2"/>
<stop offset="1" stop-color="#140035"/>
</linearGradient>
<linearGradient id="paint37_linear" x1="829205" y1="136.966" x2="829205" y2="366.792" gradientUnits="userSpaceOnUse">
<stop stop-color="#FFBED2"/>
<stop offset="1" stop-color="#140035"/>
</linearGradient>
<linearGradient id="paint38_linear" x1="830953" y1="165.848" x2="830953" y2="395.675" gradientUnits="userSpaceOnUse">
<stop stop-color="#FFBED2"/>
<stop offset="1" stop-color="#140035"/>
</linearGradient>
<linearGradient id="paint39_linear" x1="833164" y1="202.377" x2="833164" y2="432.204" gradientUnits="userSpaceOnUse">
<stop stop-color="#FFBED2"/>
<stop offset="1" stop-color="#140035"/>
</linearGradient>
<linearGradient id="paint40_linear" x1="836048" y1="250.048" x2="836048" y2="479.879" gradientUnits="userSpaceOnUse">
<stop stop-color="#FFBED2"/>
<stop offset="1" stop-color="#140035"/>
</linearGradient>
<linearGradient id="paint41_linear" x1="839971" y1="314.883" x2="839971" y2="544.717" gradientUnits="userSpaceOnUse">
<stop stop-color="#FFBED2"/>
<stop offset="1" stop-color="#140035"/>
</linearGradient>
</defs>
</svg>
