<svg xmlns="http://www.w3.org/2000/svg" viewBox="0 0 433.85 91.4"><defs><style>.cls-1,.cls-2{fill:#ffbed2;}.cls-1,.cls-3{fill-rule:evenodd;}.cls-3{fill:#fff;}</style></defs><g id="Слой_2" data-name="Слой 2"><g id="Слой_1-2" data-name="Слой 1"><path class="cls-1" d="M180,24.07H181V37.76a6.22,6.22,0,0,0,.86,3.55c-1.35-.87-2-2.36-2-4.6V24.07Zm86.29,0V57.29H241.65v-1h23.5V24.07Zm99.11,11.35c.34,14-8.83,22-24.61,21.87l-33.62,0c-4.75,0-10.86-1.56-14.55-5.52,3.51,2.73,9.48,4.36,14.56,4.46l33.58,0c14.93.22,23.83-7.63,23.55-20.89,0-4,0-7.27,0-11.28h1.08c0,4.74,0,6.6,0,11.35ZM290.63,13.83c.13-.36.27-.72.41-1.06l72.62,0A18.76,18.76,0,0,0,357.52,3a18.35,18.35,0,0,1,7.67,10.77l-74.56,0ZM110.43,44.46v-8.8H149.6V24.07h-1.09V34.6H109.35v9.86ZM86.13,56.24v1H149.6V45.51h-1.09V56.24H86.13Zm-77-42.37-.6-1.06H29.65l.59,1.06Zm46.2-.07.6-1.05h92.62v-10h1.09V13.8ZM78.41,24.07h1.25L60.87,57.29H33.66l-.59-1H60.22L78.41,24.07ZM376.48,35.71l-10.2-.19V34.47l14.48.28,1.12,1ZM406,56.24h26.6l1.24,1H407.1l-1.24-1ZM313.38,24.07h1.08v13.4a6.47,6.47,0,0,0,.94,3.77c-1.4-.93-2-2.49-2-4.82V24.07Zm93.12-6.89L366.24,2.59l.09-1,41.61,15.07-1.44.56ZM422.71,4.72c10.86,10.62,5.3,29.49-10.77,32l-1.19-1c9.33-1.32,15.58-8.06,16.27-16.41a20.31,20.31,0,0,0-4.31-14.56Zm-137.87-2h1.09v11.1H155.65c.13-.36.27-.71.41-1.05H284.84v-10ZM218,45.49v11.8H176.57c-8,0-14.7-1.3-18.39-5.25,4.3,3,10,4.2,17.31,4.2h41.39V45.49Z"/><path class="cls-2" d="M18.48,91.21V74.66H15.36V91.21ZM57.36,74.66h-3v12.2c0,.12,0,.4-.26.4s-.26-.23-.38-.4l-7-11.09a2.77,2.77,0,0,0-2.62-1.3c-1.56,0-2.53.83-2.53,2.25V91.21h3V79.06c0-.33.21-.47.33-.47s.14,0,.37.4l7,11a2.85,2.85,0,0,0,2.67,1.4,2.19,2.19,0,0,0,2.46-2.34V74.66Zm36.5,16.55V88.73h-5.6c-2,0-3.48-.29-4.33-1.59-.33-.52-.78-1.53-.78-4s.42-3.71.92-4.44c1-1.42,2.51-1.54,4.35-1.54H93.6V74.66H87a7,7,0,0,0-5.42,2.08c-1.4,1.63-1.61,4.07-1.61,6.43,0,1.82.12,4.35,1.68,6.1a6.7,6.7,0,0,0,5.28,1.94Zm30.38-16.74c-2,0-4.76,0-6.6,1.75s-1.92,4.47-1.92,6.72c0,1.86,0,4.87,1.92,6.71s4.63,1.75,6.6,1.75,4.8,0,6.59-1.75,1.9-4.54,1.9-6.71-.17-5.06-1.9-6.72-4.63-1.75-6.59-1.75Zm-5.3,8.47c0-2.53.38-3.83,1-4.64,1-1.2,2.54-1.34,4.26-1.34s3.31.14,4.28,1.34c.52.64,1,1.78,1,4.64,0,2.67-.47,3.92-1,4.61-1,1.25-2.58,1.37-4.28,1.37s-3.29-.12-4.26-1.37c-.54-.69-1-1.92-1-4.61Zm36.35,8.27h3.13V78.33a1.06,1.06,0,0,1,.33-.93,1.07,1.07,0,0,1,.82-.26h5.07a2.39,2.39,0,0,1,1.75.5,3.2,3.2,0,0,1,.59,2.29,5.35,5.35,0,0,1-.38,2.27,1.88,1.88,0,0,1-1.7.74h-3.13c-.89,0-1.39.47-1.39,1.13v.38a2.44,2.44,0,0,0,.78,1.39l5.44,5.37h3.93l-6.3-5.84v-.12h2.13a3.17,3.17,0,0,0,3.12-1.7,7.48,7.48,0,0,0,.71-3.73,6.1,6.1,0,0,0-.82-3.64,3.78,3.78,0,0,0-3.55-1.52H158a2.41,2.41,0,0,0-2.68,2.82V91.21Zm40.69,0V85.35h7.76a4.13,4.13,0,0,0,2.53-.81c1.3-1.06,1.44-3.19,1.44-4.54s-.12-3.26-1.25-4.35a4.48,4.48,0,0,0-3.29-1h-7.88a2.61,2.61,0,0,0-1.87.64,2.35,2.35,0,0,0-.56,1.84V91.21Zm0-8.35V78.14a1,1,0,0,1,.21-.78.91.91,0,0,1,.73-.22h5a2.75,2.75,0,0,1,1.94.57,3.44,3.44,0,0,1,.59,2.27,3.7,3.7,0,0,1-.54,2.27,2.51,2.51,0,0,1-2,.61Zm42.34-8.39c-2,0-4.76,0-6.6,1.75s-1.92,4.47-1.92,6.72c0,1.86,0,4.87,1.92,6.71s4.64,1.75,6.6,1.75,4.8,0,6.6-1.75,1.89-4.54,1.89-6.71-.17-5.06-1.89-6.72-4.64-1.75-6.6-1.75ZM233,82.94c0-2.53.38-3.83,1-4.64,1-1.2,2.53-1.34,4.25-1.34s3.32.14,4.29,1.34c.52.64,1,1.78,1,4.64,0,2.67-.47,3.92-1,4.61-1,1.25-2.58,1.37-4.29,1.37S235,88.8,234,87.55c-.55-.69-1-1.92-1-4.61Zm36.36,8.27h3.12V78.33a1.06,1.06,0,0,1,.33-.93,1.09,1.09,0,0,1,.83-.26h5.06a2.38,2.38,0,0,1,1.75.5,3.2,3.2,0,0,1,.59,2.29,5.35,5.35,0,0,1-.38,2.27,1.87,1.87,0,0,1-1.7.74h-3.12c-.9,0-1.4.47-1.4,1.13v.38a2.44,2.44,0,0,0,.78,1.39l5.44,5.37h3.93l-6.29-5.84v-.12h2.13a3.18,3.18,0,0,0,3.12-1.7,7.59,7.59,0,0,0,.71-3.73,6.11,6.11,0,0,0-.83-3.64,3.78,3.78,0,0,0-3.55-1.52h-7.85a2.8,2.8,0,0,0-2,.66,2.77,2.77,0,0,0-.68,2.16V91.21Zm35.43,0h3.29L309.78,87h8l1.7,4.18h3.29L316.5,76.34a2.56,2.56,0,0,0-2.72-1.87,2.5,2.5,0,0,0-2.72,1.87l-6.25,14.87Zm8.49-13.14c.1-.24.26-.69.48-.69s.37.45.47.69l2.69,6.73h-6.36l2.72-6.73Zm35.91,13.14V77.14h6.48V74.66H339.63v2.48h6.46V91.21Zm41.13,0V88.73H381.5a1.6,1.6,0,0,1-1.07-.22.85.85,0,0,1-.23-.63V84H390V81.52H380.2V78.18a1,1,0,0,1,.26-.8,1.23,1.23,0,0,1,.85-.24h8.94V74.66H379.63a2.58,2.58,0,0,0-2,.64,2.72,2.72,0,0,0-.57,1.73V88.75a2.52,2.52,0,0,0,.62,1.94,2.45,2.45,0,0,0,1.89.52Zm31.58,0a5.51,5.51,0,0,0,4.64-2c1.35-1.8,1.46-4.64,1.46-6.43,0-2-.07-4.35-1.68-6.13a6.31,6.31,0,0,0-4.84-2H415a2.32,2.32,0,0,0-1.78.71,2.73,2.73,0,0,0-.57,1.94v11.8a2,2,0,0,0,.69,1.65,2.9,2.9,0,0,0,1.84.45ZM415.8,78.14a1.07,1.07,0,0,1,.33-.83,1.19,1.19,0,0,1,.73-.17h3.24a4.92,4.92,0,0,1,3.55,1.21c1,1.09,1.16,2.74,1.16,4.16,0,2.81-.43,4-.83,4.68-.71,1.16-1.85,1.54-3.57,1.54h-3.6a1,1,0,0,1-.8-.24,1.19,1.19,0,0,1-.21-.9V78.14Z"/><path class="cls-3" d="M427.51,52l3,2.56H404.11l-3-2.56ZM263.63,52v2.56H239V52Zm24.53-40.79a15.78,15.78,0,0,1,1.2-2.56h70.85a15.78,15.78,0,0,1,1.2,2.56Zm2.41-4.33a15.06,15.06,0,0,1,2.6-2.57H356.4A15.06,15.06,0,0,1,359,6.9ZM296,2.56A29.19,29.19,0,0,1,309,0h31.6a29.19,29.19,0,0,1,13,2.56Zm-188.34,39V39H83.36v2.57Zm0-4.34V34.68H83.36v2.56Zm39.17-4.33V30.34H83.36v2.57Zm0-4.34V26H83.36v2.56Zm0-4.33V21.67H83.36v2.57ZM83.36,43.35v2.56h63.48V43.35Zm0,4.33v2.57h63.48V47.68Zm0,4.34v2.56h63.48V52Zm-77-40.79L4.91,8.67h21l1.45,2.56ZM3.91,6.9,2.45,4.33h21L24.88,6.9ZM1.45,2.56,0,0H21l1.45,2.56Zm51.22,8.67,1.46-2.56h92.71v2.56ZM55.13,6.9l1.45-2.57h90.26V6.9Zm2.46-4.34L59,0h87.8V2.56ZM40.4,32.91l1.45-2.57h31.2L71.6,32.91Zm2.45-4.34L44.31,26H75.5l-1.45,2.56Zm2.46-4.33,1.45-2.57H78l-1.45,2.57ZM70.6,34.68l-1.45,2.56H21.08l-1.46-2.56ZM68.15,39,66.7,41.58H23.53L22.08,39ZM65.7,43.35l-1.45,2.56H26l-1.45-2.56Zm-2.45,4.33L61.8,50.25H28.43L27,47.68ZM60.79,52l-1.45,2.56H30.89L29.44,52ZM18.62,32.91l-1.45-2.57h21l1.44,2.57Zm-2.45-4.34L14.72,26h21l1.44,2.56Zm-2.45-4.33-1.46-2.57h21l1.45,2.57Zm349,10.44v.9c0,.57,0,1.12,0,1.66H336V34.68ZM362.46,39a20.5,20.5,0,0,1-.5,2.57H334.32A4.38,4.38,0,0,0,335.79,39Zm-1,4.34a16.24,16.24,0,0,1-1.2,2.56H289.36a16.27,16.27,0,0,1-1.21-2.56ZM359,47.68a15.13,15.13,0,0,1-2.61,2.57H293.16a15.43,15.43,0,0,1-2.6-2.57ZM353.53,52a29.27,29.27,0,0,1-12.95,2.56l-34.4,0A26.63,26.63,0,0,1,296,52ZM287.6,41.58a22.49,22.49,0,0,1-.49-2.57H312a4.38,4.38,0,0,0,1.47,2.57Zm-.66-4.34c0-.54,0-1.09,0-1.66v-.9h24.88v2.56Zm0-4.33V30.34h24.88v2.57Zm0-4.34V26h24.88v2.56Zm0-4.33V21.67h24.88v2.57ZM336,32.91V30.34h26.74v2.57Zm0-4.34V26H362.7v2.56Zm0-4.33V21.67h26.7v2.57ZM215.35,0h68V2.56H161A29.16,29.16,0,0,1,174,0h41.39Zm68,4.33V6.9H155.54a15.49,15.49,0,0,1,2.61-2.57Zm0,4.34v2.56H153.13a16.7,16.7,0,0,1,1.21-2.56Zm-68,34.68v2.56h-61a15.39,15.39,0,0,1-1.2-2.56Zm0,4.33v2.57H158.14a15.06,15.06,0,0,1-2.6-2.57Zm0,4.34v2.56H174A29.21,29.21,0,0,1,161,52ZM152.58,41.58a20.51,20.51,0,0,1-.49-2.57h26.5a4.19,4.19,0,0,0,1.47,2.57Zm-.66-4.34c0-.54,0-1.09,0-1.66v-.9h26.55v2.56Zm0-4.33V30.34h26.55v2.57Zm0-4.34V26h26.55v2.56Zm0-4.33V21.67h26.55v2.57Zm111.76-2.57v2.57H239V21.67Zm0,4.34v2.56H239V26Zm0,4.33v2.57H239V30.34Zm0,4.34v2.56H239V34.68Zm0,4.33v2.57H239V39Zm0,4.34v2.56H239V43.35Zm0,4.33v2.57H239V47.68ZM402.38,13h22.45a18.7,18.7,0,0,1,.37,2.57H409.56L402.38,13ZM366.66,0h36.5c5.3,0,9.86.82,13.44,2.56H373.14L366.66.25V0ZM378.1,4.33h41.39a14.33,14.33,0,0,1,2.59,2.57h-36.8L378.1,4.33Zm12.14,4.34h33a15.1,15.1,0,0,1,1.11,2.56H397.42l-7.18-2.56ZM403.09,19.9l7.53-2.56h14.64a23.26,23.26,0,0,1-.14,2.56Zm-12.73,4.34,7.53-2.57h26.95a16.71,16.71,0,0,1-.76,2.57Zm-12.73,4.33L385.16,26h38.09a13.38,13.38,0,0,1-1.83,2.56Zm-11,3.74,5.77-2h47.06a17.78,17.78,0,0,1-4.76,2.57H366.66v-.6Zm40.5,2.37,3,2.56h-26.4l-3-2.56ZM412.25,39l3,2.57H388.85l-3-2.57Zm5.08,4.34,3,2.56H393.94l-3-2.56Zm5.09,4.33,3,2.57H399l-3-2.57Z"/></g></g></svg>