<svg width="24" height="24" viewBox="0 0 24 24" fill="none" xmlns="http://www.w3.org/2000/svg">
<path d="M4.40479 9.39746H7.74538V19.4477H4.40479V9.39746Z" fill="#fff"/>
<path d="M6.05327 8.02564H6.07531C7.24071 8.02564 7.96538 7.2536 7.96538 6.28865C7.94335 5.30244 7.24071 4.55225 6.09715 4.55225C4.95379 4.55225 4.2063 5.30244 4.2063 6.28865C4.2063 7.2536 4.93272 8.02564 6.05327 8.02564Z" fill="#fff"/>
<path d="M12.9352 19.4478V13.8348C12.9352 13.5337 12.9582 13.2352 13.0462 13.0204C13.288 12.4193 13.8368 11.7986 14.7603 11.7986C15.9696 11.7986 16.4525 12.7204 16.4525 14.0708V19.4476H19.7938V13.6844C19.7938 10.5976 18.1456 9.16162 15.9468 9.16162C14.1717 9.16162 13.3792 10.1386 12.9352 10.8217V10.8545H12.9134C12.9192 10.8437 12.9286 10.8327 12.9352 10.8217V9.39764H9.59326C9.63811 10.3404 9.59326 19.4476 9.59326 19.4476H12.9352V19.4478Z" fill="#fff"/>
<path d="M0 0V24H24V0H0ZM22.5155 22.5155H1.48454V1.48454H22.5155V22.5155Z" fill="#fff"/>
</svg>
