<svg width="40" height="40" viewBox="0 0 40 40" fill="none" xmlns="http://www.w3.org/2000/svg">
    <g clip-path="url(#clip0)">
        <path d="M40 8.05756C40 4.94995 37.4719 2.42188 34.3643 2.42188H5.63568C2.52808 2.42188 0 4.94995 0 8.05756V15.0333H6.72943L2.34558 24.9631V37.7307H37.6544V24.9631L33.2706 15.0333H40V8.05756ZM28.7366 12.6895H26.3892V10.3421H28.7366V12.6895ZM24.0454 12.6895H15.9546V10.3421H24.0454V12.6895ZM13.6108 12.6895H11.2634V10.3421H13.6108V12.6895ZM35.3107 25.4572V35.387H4.68933V25.4572L9.29138 15.0333H30.7086L35.3107 25.4572ZM37.6562 12.6895H31.0803V7.99835H8.91968V12.6895H2.34375V8.05756C2.34375 6.24237 3.8205 4.76562 5.63568 4.76562H34.3643C36.1795 4.76562 37.6562 6.24237 37.6562 8.05756V12.6895Z" fill="white"/>
        <path d="M14.136 19.3469H16.4816V21.6907H14.136V19.3469Z" fill="white"/>
        <path d="M18.8271 19.3469H21.1727V21.6907H18.8271V19.3469Z" fill="white"/>
        <path d="M23.5183 19.3469H25.8639V21.6907H23.5183V19.3469Z" fill="white"/>
        <path d="M14.136 24.0381H16.4816V26.3818H14.136V24.0381Z" fill="white"/>
        <path d="M18.8271 24.0381H21.1727V26.3818H18.8271V24.0381Z" fill="white"/>
        <path d="M23.5183 24.0381H25.8639V26.3818H23.5183V24.0381Z" fill="white"/>
        <path d="M14.136 28.7296H16.4816V31.0734H14.136V28.7296Z" fill="white"/>
        <path d="M18.8271 28.7296H21.1727V31.0734H18.8271V28.7296Z" fill="white"/>
        <path d="M23.5183 28.7296H25.8639V31.0734H23.5183V28.7296Z" fill="white"/>
    </g>
    <defs>
        <clipPath id="clip0">
            <rect width="40" height="40" fill="white"/>
        </clipPath>
    </defs>
</svg>
