<svg width="40" height="40" viewBox="0 0 40 40" fill="none" xmlns="http://www.w3.org/2000/svg">
    <path d="M7.948 19.9999C7.948 26.6568 13.3433 32.0525 19.9986 32.0525C20.6387 32.0525 21.2673 32.0032 21.8803 31.9056C22.9925 32.5908 24.3021 32.9896 25.7054 32.9896C29.7283 32.9896 32.9899 29.728 32.9899 25.7058C32.9899 24.3018 32.5923 22.9922 31.9045 21.8801C32.0018 21.267 32.0524 20.6401 32.0524 19.9999C32.0524 13.3418 26.6571 7.94614 20.0002 7.94614C19.3604 7.94614 18.7315 7.99833 18.1184 8.09434C17.0079 7.40781 15.6983 7.01025 14.295 7.01025C10.2721 7.01025 7.0105 10.2702 7.0105 14.2944C7.0105 15.6981 7.40805 17.0061 8.09458 18.1195C7.99987 18.7342 7.948 19.3588 7.948 19.9999ZM22.6684 22.1552C22.3468 21.8492 21.9325 21.6169 21.4184 21.4558C20.9023 21.2909 20.2086 21.1179 19.3407 20.9345C18.1748 20.6807 17.1996 20.3849 16.409 20.0434C15.6181 19.7026 14.9879 19.2361 14.5215 18.6452C14.0537 18.0508 13.8211 17.3108 13.8211 16.4339C13.8211 15.5982 14.0678 14.8498 14.5598 14.2C15.053 13.5473 15.7663 13.0473 16.6951 12.7003C17.621 12.3524 18.7122 12.1787 19.9622 12.1787C20.9599 12.1787 21.8256 12.2931 22.5569 12.5241C23.2856 12.7554 23.8945 13.0612 24.3794 13.4445C24.8629 13.8282 25.2196 14.2313 25.4435 14.6556C25.669 15.0795 25.7818 15.4954 25.7818 15.8998C25.7818 16.2764 25.6365 16.6188 25.352 16.9175C25.0672 17.2177 24.7035 17.3698 24.2792 17.3685C23.8958 17.3685 23.5959 17.2812 23.3871 17.094C23.1841 16.912 22.9712 16.6246 22.7402 16.2226C22.4483 15.6633 22.1001 15.2264 21.6941 14.9136C21.2985 14.6075 20.6471 14.4481 19.7392 14.4494C18.8994 14.4494 18.2286 14.6217 17.7212 14.9571C17.2109 15.2983 16.967 15.6929 16.9657 16.1565C16.967 16.4471 17.0501 16.6923 17.218 16.9007C17.3884 17.1121 17.6268 17.2954 17.9312 17.4507C18.2367 17.6066 18.5472 17.728 18.8584 17.8157C19.1742 17.9046 19.6986 18.0341 20.4258 18.2045C21.3378 18.402 22.1664 18.6217 22.9106 18.8614C23.6535 19.1024 24.2863 19.393 24.8108 19.738C25.3378 20.0834 25.7508 20.5231 26.0453 21.0544C26.3414 21.586 26.4876 22.2358 26.4876 22.9996C26.4892 23.9213 26.2328 24.7487 25.7225 25.4819C25.2122 26.2161 24.4638 26.7899 23.4844 27.2013C22.5037 27.6159 21.3449 27.8215 20.006 27.8215C18.4016 27.8215 17.0743 27.5412 16.0253 26.9729C15.2814 26.567 14.6764 26.0231 14.2128 25.3437C13.7463 24.6642 13.5111 23.999 13.5111 23.3492C13.5111 22.9674 13.6577 22.6346 13.9409 22.3627C14.2286 22.0892 14.5975 21.9523 15.0347 21.9523C15.3926 21.9523 15.6986 22.0595 15.9493 22.2738C16.1977 22.4867 16.4061 22.7967 16.5753 23.2055C16.7795 23.6804 17.0021 24.0766 17.2379 24.3923C17.4718 24.7052 17.8014 24.9658 18.2286 25.17C18.6516 25.3746 19.2138 25.4761 19.9174 25.4761C20.8813 25.4761 21.6593 25.269 22.2541 24.8572C22.853 24.4429 23.1407 23.9384 23.1407 23.3282C23.1403 22.8414 22.9854 22.4555 22.6684 22.1552Z" fill="white"/>
    <path d="M0 0V40H40V0H0ZM37.5258 37.5258H2.47423V2.47423H37.5258V37.5258Z" fill="white"/>
</svg>
