<svg width="24" height="24" viewBox="0 0 24 24" fill="none" xmlns="http://www.w3.org/2000/svg">
<path d="M0 0V24H24V0H0ZM22.5155 22.5155H1.48454V1.48454H22.5155V22.5155Z" fill="#D3708E"/>
<path d="M15.8613 4.2085H8.13873C5.97064 4.2085 4.20703 5.97235 4.20703 8.1402V15.8627C4.20703 18.0308 5.97064 19.7942 8.13873 19.7942H15.8613C18.0294 19.7942 19.7927 18.0308 19.7927 15.8627V8.1402C19.7927 5.97235 18.0294 4.2085 15.8613 4.2085ZM18.0968 15.8627C18.0968 17.0955 17.0938 18.0985 15.8613 18.0985H8.13873C6.90621 18.0985 5.90323 17.0955 5.90323 15.8627V8.1402C5.90323 6.90767 6.90621 5.90494 8.13873 5.90494H15.8613C17.0938 5.90494 18.0968 6.90767 18.0968 8.1402V15.8627Z" fill="#D3708E"/>
<path d="M16.1432 8.81737C15.6193 8.81737 15.1931 8.39139 15.1931 7.86755C15.1931 7.34395 15.6193 6.91797 16.1432 6.91797C16.667 6.91797 17.093 7.34395 17.093 7.86755C17.093 8.39139 16.667 8.81737 16.1432 8.81737Z" fill="#D3708E"/>
<path d="M11.9997 7.9873C9.78666 7.9873 7.98584 9.78788 7.98584 12.0012C7.98584 14.2144 9.78666 16.0153 11.9997 16.0153C14.2132 16.0153 16.014 14.2144 16.014 12.0012C16.014 9.78813 14.2132 7.9873 11.9997 7.9873ZM11.9997 14.3195C10.7222 14.3195 9.6818 13.2793 9.6818 12.0012C9.6818 10.7235 10.7222 9.68374 11.9997 9.68374C13.2779 9.68374 14.3176 10.7235 14.3176 12.0012C14.3176 13.2793 13.2779 14.3195 11.9997 14.3195Z" fill="#D3708E"/>
</svg>
